<?xml version="1.0" encoding="utf-8"?>
<!-- Generator: Adobe Illustrator 17.0.1, SVG Export Plug-In . SVG Version: 6.00 Build 0)  -->
<!DOCTYPE svg PUBLIC "-//W3C//DTD SVG 1.1//EN" "http://www.w3.org/Graphics/SVG/1.1/DTD/svg11.dtd">
<svg version="1.1" id="Ebene_1" xmlns="http://www.w3.org/2000/svg" xmlns:xlink="http://www.w3.org/1999/xlink" x="0px" y="0px"
	 width="30px" height="32px" viewBox="0 0 30 32" enable-background="new 0 0 30 32" xml:space="preserve">
<path d="M23.634,3.795c-0.733-0.733-1.577-1.191-2.528-1.39c-0.009-0.002-0.017-0.006-0.025-0.008
	C20.734,2.327,20.375,2.286,20,2.286H5.143c-0.375,0-0.734,0.041-1.081,0.111C4.053,2.399,4.045,2.403,4.037,2.405
	c-0.951,0.199-1.795,0.657-2.528,1.39C0.503,4.801,0,6.012,0,7.429v9.178v5.679c0,1.417,0.503,2.628,1.509,3.634
	c1.006,1.006,2.217,1.509,3.634,1.509H20c1.417,0,2.628-0.503,3.634-1.509c1.006-1.006,1.509-2.217,1.509-3.634v-5.679V7.429
	C25.143,6.012,24.64,4.801,23.634,3.795z M5.145,25.143c-0.786,0-1.459-0.28-2.018-0.839c-0.559-0.559-0.839-1.232-0.839-2.018
	V17.75c0-0.008-0.004-0.014-0.004-0.021v-10.3c0-0.786,0.28-1.459,0.839-2.018C3.504,5.03,3.943,4.788,4.43,4.667
	c0.242-0.056,0.482-0.095,0.715-0.095h14.853c0.233,0,0.472,0.039,0.715,0.095C21.2,4.788,21.639,5.03,22.02,5.411
	c0.559,0.559,0.839,1.232,0.839,2.018v10.3c0,0.008-0.004,0.014-0.004,0.021v4.536c0,0.786-0.28,1.459-0.839,2.018
	c-0.559,0.559-1.232,0.839-2.018,0.839H5.145z"/>
</svg>
