<?xml version="1.0" encoding="utf-8"?>
<!-- Generator: Adobe Illustrator 17.0.1, SVG Export Plug-In . SVG Version: 6.00 Build 0)  -->
<!DOCTYPE svg PUBLIC "-//W3C//DTD SVG 1.1//EN" "http://www.w3.org/Graphics/SVG/1.1/DTD/svg11.dtd">
<svg version="1.1" id="Ebene_1" xmlns="http://www.w3.org/2000/svg" xmlns:xlink="http://www.w3.org/1999/xlink" x="0px" y="0px"
	 width="30px" height="32px" viewBox="0 0 30 32" enable-background="new 0 0 30 32" xml:space="preserve">
<path d="M25.143,16.607v5.679c0,1.417-0.503,2.628-1.509,3.634S21.417,27.429,20,27.429H5.143c-1.417,0-2.628-0.503-3.634-1.509
	S0,23.703,0,22.286V7.429c0-1.417,0.503-2.628,1.509-3.634s2.217-1.509,3.634-1.509H20c0.75,0,1.446,0.149,2.089,0.446
	c0.179,0.083,0.286,0.22,0.321,0.411c0.036,0.203-0.018,0.375-0.161,0.518l-0.875,0.875c-0.119,0.119-0.256,0.179-0.411,0.179
	c-0.036,0-0.09-0.012-0.161-0.036c-0.274-0.071-0.542-0.107-0.804-0.107H5.141c-0.786,0-1.459,0.28-2.018,0.839
	S2.284,6.643,2.284,7.429v14.857c0,0.786,0.28,1.459,0.839,2.018c0.559,0.559,1.232,0.839,2.018,0.839h14.857
	c0.786,0,1.459-0.28,2.018-0.839s0.839-1.232,0.839-2.018V17.75c0-0.155,0.054-0.286,0.161-0.393l1.143-1.143
	c0.119-0.119,0.256-0.179,0.411-0.179c0.071,0,0.143,0.018,0.214,0.054c0.238,0.095,0.357,0.268,0.357,0.518H25.143z"/>
<path d="M0.002,16.607c0-0.25,0.119-0.423,0.357-0.518c0.071-0.036,0.143-0.054,0.214-0.054c0.155,0,0.292,0.06,0.411,0.179
	l1.143,1.143c0.107,0.107,0.161,0.238,0.161,0.393v4.536c0,0.786,0.28,1.459,0.839,2.018s1.232,0.839,2.018,0.839h14.857
	c0.786,0,1.459-0.28,2.018-0.839c0.559-0.559,0.839-1.232,0.839-2.018V7.429c0-0.786-0.28-1.459-0.839-2.018
	s-1.232-0.839-2.018-0.839H5.145c-0.262,0-0.53,0.036-0.804,0.107C4.27,4.703,4.216,4.715,4.18,4.715
	c-0.155,0-0.292-0.06-0.411-0.179L2.894,3.661C2.751,3.518,2.697,3.346,2.733,3.143c0.035-0.191,0.142-0.328,0.321-0.411
	c0.643-0.297,1.339-0.446,2.089-0.446H20c1.417,0,2.628,0.503,3.634,1.509c1.006,1.006,1.509,2.217,1.509,3.634v14.857
	c0,1.417-0.503,2.628-1.509,3.634c-1.006,1.006-2.217,1.509-3.634,1.509H5.143c-1.417,0-2.628-0.503-3.634-1.509S0,23.703,0,22.286
	l0-5.679H0.002z"/>
</svg>
