<?xml version="1.0" encoding="utf-8"?>
<!-- Generator: Adobe Illustrator 17.0.1, SVG Export Plug-In . SVG Version: 6.00 Build 0)  -->
<!DOCTYPE svg PUBLIC "-//W3C//DTD SVG 1.1//EN" "http://www.w3.org/Graphics/SVG/1.1/DTD/svg11.dtd">
<svg version="1.1" id="Ebene_1" xmlns="http://www.w3.org/2000/svg" xmlns:xlink="http://www.w3.org/1999/xlink" x="0px" y="0px"
	 width="24px" height="32px" viewBox="0 0 24 32" enable-background="new 0 0 24 32" xml:space="preserve">
<path d="M17.313,17.188l3.188-3.25v11.563c0,0.875-0.75,1.625-1.625,1.625l0,0H1.626c-0.875,0-1.625-0.75-1.625-1.625l0,0V8.251
	c0-0.875,0.75-1.625,1.625-1.625h14.688l-3.188,3.188H3.188v14.125h14.125V17.188L17.313,17.188z M3.188,17.189v6.75h14.125V9.814
	H7.375L4.187,6.626h14.688c0.875,0,1.625,0.75,1.625,1.625v17.25l0,0c0,0.875-0.75,1.625-1.625,1.625H1.625l0,0
	C0.75,27.126,0,26.376,0,25.501l0-11.563L3.188,17.189L3.188,17.189z"/>
</svg>
