<?xml version="1.0" encoding="utf-8"?>
<!-- Generator: Adobe Illustrator 17.0.1, SVG Export Plug-In . SVG Version: 6.00 Build 0)  -->
<!DOCTYPE svg PUBLIC "-//W3C//DTD SVG 1.1//EN" "http://www.w3.org/Graphics/SVG/1.1/DTD/svg11.dtd">
<svg version="1.1" id="Ebene_1" xmlns="http://www.w3.org/2000/svg" xmlns:xlink="http://www.w3.org/1999/xlink" x="0px" y="0px"
	 width="18.641px" height="32px" viewBox="-0.333 0 18.641 32" enable-background="new -0.333 0 18.641 32" xml:space="preserve">
<path d="M17.727,29.715H5.156c-0.155,0-0.289-0.057-0.402-0.17c-0.113-0.113-0.17-0.253-0.17-0.42V13.714H1.155
	c-0.476,0-0.821-0.22-1.036-0.661s-0.161-0.851,0.161-1.232l5.714-6.857C6.208,4.702,6.5,4.571,6.869,4.571
	c0.369,0,0.661,0.131,0.875,0.393l5.714,6.857c0.309,0.369,0.363,0.78,0.161,1.232c-0.214,0.441-0.559,0.661-1.036,0.661H9.154
	v11.429h5.714c0.167,0,0.315,0.065,0.446,0.196l2.857,3.429c0.155,0.167,0.178,0.369,0.071,0.607
	c-0.107,0.226-0.28,0.339-0.518,0.339L17.727,29.715z"/>
</svg>
