<?xml version="1.0" standalone="no"?>
<!DOCTYPE svg PUBLIC "-//W3C//DTD SVG 1.1//EN" "http://www.w3.org/Graphics/SVG/1.1/DTD/svg11.dtd" >
<svg xmlns="http://www.w3.org/2000/svg">
<metadata></metadata>
<defs>
<font id="newmediabold" horiz-adv-x="1110" >
<font-face units-per-em="2048" ascent="1638" descent="-410" />
<missing-glyph horiz-adv-x="1024" />
<glyph horiz-adv-x="2048" />
<glyph horiz-adv-x="2048" />
<glyph unicode="&#xd;" horiz-adv-x="1024" />
<glyph unicode=" "  horiz-adv-x="1024" />
<glyph unicode="&#x09;" horiz-adv-x="1024" />
<glyph unicode="&#xa0;" horiz-adv-x="1024" />
<glyph unicode="!" horiz-adv-x="403" d="M82 0v233h233v-233h-233zM82 469v1169h233v-1169h-233z" />
<glyph unicode="&#x22;" horiz-adv-x="876" d="M86 1169v469h233v-469h-233zM555 1169v469h233v-469h-233z" />
<glyph unicode="#" horiz-adv-x="1275" d="M53 233v236h234v233h-234v234h234v233h235v-233h234v233h233v-233h234v-234h-234v-233h234v-236h-234v-233h-233v233h-234v-233h-235v233h-234zM522 469h234v233h-234v-233z" />
<glyph unicode="$" horiz-adv-x="1253" d="M41 469h233q0 -49 18.5 -92t50.5 -75t75 -50.5t92 -18.5v469q-96 0 -181 37t-149.5 100.5t-101.5 148.5t-37 181t37 181.5t100.5 150t149.5 101t182 36.5v234h233v-234q96 0 181.5 -36.5t149 -101t100 -149.5t36.5 -182h-233q0 49 -18.5 91.5t-51.5 75t-74.5 51 t-89.5 18.5v-469q94 0 179.5 -37t150 -101.5t101 -149.5t36.5 -179q0 -96 -36.5 -181t-100 -149.5t-148.5 -101.5t-182 -37v-233h-233v233q-96 0 -182 37t-149.5 100.5t-100.5 149.5t-37 182zM274 1169q0 -49 18.5 -91t50.5 -73.5t75 -50t92 -18.5v469q-49 0 -92 -18.5 t-75 -50t-50.5 -74.5t-18.5 -93zM743 233q49 0 91.5 18.5t74 51.5t50 76t18.5 90t-18.5 89t-51.5 75t-74.5 51t-89.5 18v-469z" />
<glyph unicode="%" horiz-adv-x="2355" d="M51 1055v233q0 72 29 135.5t77 111.5t111.5 75.5t132.5 27.5h234q72 0 135.5 -27.5t111.5 -75.5t76.5 -111.5t28.5 -135.5v-233q0 -72 -27.5 -135.5t-75.5 -111.5t-111.5 -77t-137.5 -29h-234q-72 0 -136 28t-111.5 76t-75 112.5t-27.5 136.5zM285 1055q0 -49 34.5 -84 t81.5 -35h234q49 0 83 35t34 84v233q0 47 -34 82t-83 35h-234q-47 0 -81.5 -35t-34.5 -82v-233zM756 0l596 1636h247l-595 -1636h-248zM1368 352v234q0 72 27.5 135t76 111.5t112 76t134.5 27.5h236q72 0 135 -28.5t111.5 -76t76 -112t27.5 -133.5v-234q0 -72 -27.5 -135 t-76 -111.5t-112 -76t-134.5 -27.5h-236q-72 0 -135 27.5t-111.5 75t-76 111t-27.5 136.5zM1602 352q0 -47 34.5 -81.5t81.5 -34.5h236q47 0 82 34.5t35 81.5v234q0 49 -35 82.5t-82 33.5h-236q-47 0 -81.5 -33.5t-34.5 -82.5v-234z" />
<glyph unicode="&#x26;" horiz-adv-x="1308" d="M70 469q0 211 159 350q-160 137 -159 350q0 96 36.5 181.5t100 150t149.5 101t183 36.5h233q96 0 181 -36.5t148.5 -101t100.5 -149.5t37 -182h-233q0 49 -18.5 91.5t-51.5 75t-75 51t-89 18.5h-233q-49 0 -92.5 -18.5t-75 -50t-50 -74.5t-18.5 -93q0 -49 18.5 -91 t50 -73.5t74.5 -50t93 -18.5v-234q-47 0 -90 -18t-76 -50t-51.5 -74t-18.5 -91t18.5 -92t50 -75t74.5 -50.5t93 -18.5h233q49 0 91 18.5t74 51.5t50.5 76t18.5 90v233h-234v234h467v-467q0 -96 -37 -181t-100.5 -149.5t-148.5 -101.5t-181 -37h-233q-96 0 -182.5 37 t-150 100.5t-100 149.5t-36.5 182z" />
<glyph unicode="'" horiz-adv-x="411" d="M86 1169v469h233v-469h-233z" />
<glyph unicode="(" horiz-adv-x="497" d="M74 -117v1405q0 72 28.5 135.5t76.5 111.5t111.5 75.5t133.5 27.5v-233q-47 0 -82 -35t-35 -82v-1405q0 -49 35 -82.5t82 -33.5v-236q-72 0 -135.5 27.5t-110.5 76t-75.5 112t-28.5 136.5z" />
<glyph unicode=")" horiz-adv-x="495" d="M68 -233q49 0 82.5 33.5t33.5 82.5v1405q0 47 -33.5 82t-82.5 35v233q70 0 134 -27.5t111 -75.5t76 -111.5t29 -135.5v-1405q0 -72 -28 -136t-76 -112.5t-111.5 -76t-134.5 -27.5v236z" />
<glyph unicode="*" horiz-adv-x="1263" d="M47 469v233h303l-215 213l166 166l215 -213v301h234v-301l213 213l165 -166l-213 -213h302v-233h-302l213 -215l-165 -166l-213 215v-303h-234v303l-215 -215l-166 166l215 215h-303z" />
<glyph unicode="+" horiz-adv-x="1202" d="M16 469v233h469v467h234v-467h467v-233h-467v-469h-234v469h-469z" />
<glyph unicode="," horiz-adv-x="378" d="M80 0v233h233v-233l-84 -233h-149l84 233h-84z" />
<glyph unicode="-" d="M86 469v233h936v-233h-936z" />
<glyph unicode="." horiz-adv-x="411" d="M86 0v233h233v-233h-233z" />
<glyph unicode="/" horiz-adv-x="870" d="M12 0l596 1638h250l-596 -1638h-250z" />
<glyph unicode="0" horiz-adv-x="1320" d="M76 469v700q0 96 37 181.5t100 150t149.5 101t182.5 36.5h233q96 0 181 -36.5t148.5 -101t100.5 -149.5t37 -182v-700q0 -96 -37 -181t-100.5 -149.5t-148.5 -101.5t-181 -37h-233q-96 0 -182.5 37t-149.5 100.5t-100 149.5t-37 182zM309 469q0 -49 18.5 -92t50.5 -75 t75 -50.5t92 -18.5h233q49 0 91 18.5t74 51.5t50.5 76t18.5 90v700q0 49 -18.5 91.5t-51.5 75t-75 51t-89 18.5h-233q-49 0 -92 -18.5t-75 -50t-50.5 -75t-18.5 -92.5v-700z" />
<glyph unicode="1" horiz-adv-x="575" d="M18 995v365l234 278h235v-1638h-235v1274z" />
<glyph unicode="2" horiz-adv-x="1310" d="M74 0v469q0 96 36.5 181t101 148.5t149.5 100.5t182 37h233q49 0 91 18.5t74 51t50.5 74.5t18.5 89q0 49 -18.5 91.5t-51.5 75t-75 51t-89 18.5h-233q-49 0 -92 -18.5t-75 -50t-50.5 -74.5t-18.5 -93h-233q0 96 36.5 181.5t100 150t149.5 101t183 36.5h233 q96 0 181 -36.5t148.5 -101t100.5 -149.5t37 -182q0 -96 -37 -181t-101.5 -148.5t-149.5 -100.5t-179 -37h-233q-47 0 -90 -18t-76 -50t-51.5 -74t-18.5 -91v-236h936v-233h-1169z" />
<glyph unicode="3" horiz-adv-x="1300" d="M59 469h234q0 -49 18.5 -92t50 -75t74.5 -50.5t92 -18.5h234q49 0 91 18.5t73.5 51.5t50 76t18.5 90t-18.5 89t-51 75t-74.5 51t-89 18h-234v234h234q49 0 91 18.5t73.5 51t50 74.5t18.5 89q0 49 -18.5 91.5t-51 75t-74.5 51t-89 18.5h-234q-49 0 -92 -18.5t-74.5 -50 t-50 -74.5t-18.5 -93h-234q0 96 37 181.5t100.5 150t149.5 101t182 36.5h234q96 0 181 -36.5t148.5 -101t100.5 -149.5t37 -182q0 -211 -158 -350q158 -139 158 -350q0 -96 -37 -181t-100.5 -149.5t-148.5 -101.5t-181 -37h-234q-96 0 -182 37t-149.5 100.5t-100.5 149.5 t-37 182z" />
<glyph unicode="4" horiz-adv-x="1220" d="M29 469v233l340 936h249l-339 -936h426v467h233v-467h260v-233h-260v-469h-233v469h-676z" />
<glyph unicode="5" horiz-adv-x="1316" d="M76 469h233q0 -49 18.5 -92t50.5 -75t75 -50.5t92 -18.5h233q49 0 91 18.5t74 51.5t50.5 76t18.5 90v233q0 47 -18.5 89.5t-51.5 75t-75 51t-89 18.5h-233q-47 0 -90 -18.5t-76 -50t-51.5 -73.5t-18.5 -92h-233v936h1169v-233h-936v-297q106 61 236 61h233 q94 0 179 -36.5t149.5 -101t101.5 -149.5t37 -180v-233q0 -96 -37 -181t-100.5 -149.5t-148.5 -101.5t-181 -37h-233q-96 0 -182.5 37t-149.5 100.5t-100 149.5t-37 182z" />
<glyph unicode="6" horiz-adv-x="1310" d="M76 469v700q0 96 37 181.5t100 150t149.5 101t182.5 36.5h233q96 0 181 -36.5t148.5 -101t100.5 -149.5t37 -182h-233q0 49 -18.5 91.5t-51.5 75t-75 51t-89 18.5h-233q-49 0 -92 -18.5t-75 -50t-50.5 -75t-18.5 -92.5v-297q106 63 236 64h233q94 0 179 -37t149.5 -101.5 t101.5 -149.5t37 -179q0 -96 -37 -181t-100.5 -149.5t-148.5 -101.5t-181 -37h-233q-96 0 -182.5 37t-149.5 100.5t-100 149.5t-37 182zM309 469q0 -49 18.5 -92t50.5 -75t75 -50.5t92 -18.5h233q49 0 91 18.5t74 51.5t50.5 76t18.5 90t-18.5 89t-51.5 75t-75 51t-89 18 h-233q-47 0 -90 -18t-76 -50t-51.5 -74t-18.5 -91z" />
<glyph unicode="7" horiz-adv-x="1247" d="M57 1405v233h1170v-233l-809 -1405h-271l809 1405h-899z" />
<glyph unicode="8" horiz-adv-x="1310" d="M70 469q0 211 159 350q-160 137 -159 350q0 96 36.5 181.5t100 150t149.5 101t183 36.5h233q96 0 181 -36.5t148.5 -101t100.5 -149.5t37 -182q0 -211 -158 -350q158 -139 158 -350q0 -96 -37 -181t-100.5 -149.5t-148.5 -101.5t-181 -37h-233q-96 0 -182.5 37 t-150 100.5t-100 149.5t-36.5 182zM303 469q0 -49 18.5 -92t50 -75t74.5 -50.5t93 -18.5h233q49 0 91 18.5t74 51.5t50.5 76t18.5 90t-18.5 89t-51.5 75t-75 51t-89 18h-233q-47 0 -90 -18t-76 -50t-51.5 -74t-18.5 -91zM303 1169q0 -49 18.5 -91t50 -73.5t74.5 -50 t93 -18.5h233q49 0 91 18.5t74 51t50.5 74.5t18.5 89q0 49 -18.5 91.5t-51.5 75t-75 51t-89 18.5h-233q-49 0 -92.5 -18.5t-75 -50t-50 -74.5t-18.5 -93z" />
<glyph unicode="9" horiz-adv-x="1308" d="M63 469h234q0 -49 18.5 -92t50 -75t74.5 -50.5t92 -18.5h234q49 0 91 18.5t74 51.5t50 76t18 90v297q-106 -63 -233 -64h-234q-96 0 -181 37t-149.5 100.5t-101.5 148.5t-37 181t37 181.5t100.5 150t149.5 101t182 36.5h234q96 0 181 -36.5t148.5 -101t100.5 -149.5 t37 -182v-700q0 -96 -37 -181t-100.5 -149.5t-148.5 -101.5t-181 -37h-234q-96 0 -182 37t-149.5 100.5t-100.5 149.5t-37 182zM297 1169q0 -49 18.5 -91t50 -73.5t74.5 -50t92 -18.5h234q49 0 91 18.5t74 51t50 74.5t18 89q0 49 -18 91.5t-51 75t-75 51t-89 18.5h-234 q-49 0 -92 -18.5t-74.5 -50t-50 -74.5t-18.5 -93z" />
<glyph unicode=":" horiz-adv-x="339" d="M86 0v233h233v-233h-233zM86 936v233h233v-233h-233z" />
<glyph unicode=";" horiz-adv-x="382" d="M78 0v233h233v-233l-84 -233h-149l84 233h-84zM78 469v233h233v-233h-233z" />
<glyph unicode="&#x3c;" horiz-adv-x="876" d="M18 586l492 583h305l-491 -583l491 -586h-305z" />
<glyph unicode="=" horiz-adv-x="1298" d="M86 233v236h1169v-236h-1169zM86 702v234h1169v-234h-1169z" />
<glyph unicode="&#x3e;" horiz-adv-x="874" d="M59 0l492 586l-492 583h306l491 -583l-491 -586h-306z" />
<glyph unicode="?" horiz-adv-x="1226" d="M23 1169q0 96 36.5 181.5t100 150t149.5 101t183 36.5h233q96 0 181 -36.5t148.5 -101t100.5 -149.5t37 -182q0 -96 -37 -181t-101.5 -148.5t-149.5 -100.5t-179 -37v-233h-233v467h233q49 0 91 18.5t74 51t50 74.5t18 89q0 49 -18 91.5t-51 75t-75 51t-89 18.5h-233 q-49 0 -92.5 -18.5t-75 -50t-50 -74.5t-18.5 -93h-233zM492 0v233h233v-233h-233z" />
<glyph unicode="@" horiz-adv-x="2252" d="M82 0v1169q0 96 37 181.5t100.5 150t149.5 101t182 36.5h1169q94 0 180.5 -37.5t150 -101t101 -149.5t37.5 -181v-700q0 -96 -37.5 -181t-101 -149.5t-149.5 -101.5t-181 -37q-131 0 -233 90q-102 -90 -234 -90h-235q-74 0 -137.5 27.5t-110.5 76t-74.5 112t-27.5 134.5 q0 74 28.5 137.5t76.5 111.5t111.5 75.5t135.5 27.5h350v117q0 49 -35 83t-84 34h-233q-47 0 -82 -34t-35 -83h-233q0 72 27.5 135.5t74.5 111.5t111.5 75.5t136.5 27.5h233q72 0 136.5 -27.5t112.5 -75.5t76 -111.5t28 -135.5v-469q0 -47 33.5 -82t82.5 -35t91 18.5 t74 51.5t50.5 76t18.5 90v700q0 49 -18.5 91.5t-51.5 75t-75 51t-89 18.5h-1169q-49 0 -92 -18.5t-75 -50t-50.5 -74.5t-18.5 -93v-1169q0 -49 18.5 -91t51.5 -74t76 -50t90 -18h1169v-236h-1169q-96 0 -181 37t-149.5 101.5t-101.5 149.5t-37 181zM901 350q0 -47 35 -82 t82 -35h233q49 0 84 35t35 82v119h-350q-49 0 -84 -35t-35 -84z" />
<glyph unicode="A" horiz-adv-x="1482" d="M35 0l596 1638h221l596 -1638h-250l-170 469h-563v31l-180 -500h-250zM539 702h403l-201 553z" />
<glyph unicode="B" horiz-adv-x="1327" d="M86 0v1638h702q96 0 181.5 -36.5t149 -101t100 -149.5t36.5 -182q0 -211 -157 -350q157 -138 157 -347q0 -99 -36.5 -184t-100 -149.5t-148.5 -101.5t-182 -37h-702zM319 233h469q49 0 91.5 18.5t74 51.5t50 76t18.5 90t-18.5 89t-51 75t-74.5 51t-90 18h-469v-469z M319 936h469q49 0 91.5 18.5t74 51t50 74.5t18.5 89q0 49 -18.5 91.5t-51 75t-74.5 51t-90 18.5h-469v-469z" />
<glyph unicode="C" horiz-adv-x="1304" d="M76 469v700q0 96 37 181.5t100 150t149.5 101t182.5 36.5h233q96 0 181 -36.5t148.5 -101t100.5 -149.5t37 -182h-233q0 49 -18.5 91.5t-51.5 75t-75 51t-89 18.5h-233q-49 0 -92 -18.5t-75 -50t-50.5 -74.5t-18.5 -93v-700q0 -49 18.5 -92t50.5 -75t75 -50.5t92 -18.5 h233q49 0 91 18.5t74 51.5t50.5 76t18.5 90h233q0 -96 -37 -181t-100.5 -149.5t-148.5 -101.5t-181 -37h-233q-96 0 -182.5 37t-149.5 100.5t-100 149.5t-37 182z" />
<glyph unicode="D" horiz-adv-x="1331" d="M86 0v1638h702q96 0 181.5 -36.5t149 -101t100 -149.5t36.5 -182v-700q0 -96 -36.5 -181t-100 -149.5t-148.5 -101.5t-182 -37h-702zM319 233h469q49 0 91.5 18.5t74 51.5t50 76t18.5 90v700q0 49 -18.5 91.5t-51 75t-74.5 51t-90 18.5h-469v-1172z" />
<glyph unicode="E" horiz-adv-x="1323" d="M86 0v1638h1169v-233h-936v-469h703v-234h-703v-469h936v-233h-1169z" />
<glyph unicode="F" horiz-adv-x="1265" d="M88 0v1638h1169v-233h-935v-469h702v-234h-702v-702h-234z" />
<glyph unicode="G" horiz-adv-x="1316" d="M76 469v700q0 96 37 181.5t100 150t149.5 101t182.5 36.5h233q96 0 181 -36.5t148.5 -101t100.5 -149.5t37 -182h-233q0 49 -18.5 91.5t-51.5 75t-75 51t-89 18.5h-233q-49 0 -92 -18.5t-75 -50t-50.5 -74.5t-18.5 -93v-700q0 -49 18.5 -92t50.5 -75t75 -50.5t92 -18.5 h233q49 0 91 18.5t74 51.5t50.5 76t18.5 90v233h-234v234h467v-467q0 -96 -37 -181t-100.5 -149.5t-148.5 -101.5t-181 -37h-233q-96 0 -182.5 37t-149.5 100.5t-100 149.5t-37 182z" />
<glyph unicode="H" horiz-adv-x="1347" d="M88 0v1638h234v-702h702v702h233v-1638h-233v702h-702v-702h-234z" />
<glyph unicode="I" horiz-adv-x="415" d="M88 0v1638h234v-1638h-234z" />
<glyph unicode="J" horiz-adv-x="1024" d="M6 469h234q0 -49 18 -92t50 -75t75 -50.5t92 -18.5t91 18.5t74 51.5t50.5 76t18.5 90v1169h233v-1169q0 -96 -37 -181t-100.5 -149.5t-148.5 -101.5t-181 -37t-182 37t-149.5 100.5t-100.5 149.5t-37 182z" />
<glyph unicode="K" horiz-adv-x="1224" d="M88 0v1638h234v-637l534 637h307l-688 -819l688 -819h-307l-534 637v-637h-234z" />
<glyph unicode="L" horiz-adv-x="1032" d="M88 0v1638h234v-1405h702v-233h-936z" />
<glyph unicode="M" horiz-adv-x="1558" d="M88 0v1638h234l458 -1255l457 1255h233v-1638h-233v954l-348 -954h-219l-348 954v-954h-234z" />
<glyph unicode="N" horiz-adv-x="1320" d="M88 0v1638h234l675 -1169v1169h234v-1638h-234l-675 1169v-1169h-234z" />
<glyph unicode="O" horiz-adv-x="1323" d="M76 469v700q0 96 37 181.5t100 150t149.5 101t182.5 36.5h233q96 0 181 -36.5t148.5 -101t100.5 -149.5t37 -182v-700q0 -96 -37 -181t-100.5 -149.5t-148.5 -101.5t-181 -37h-233q-96 0 -182.5 37t-149.5 100.5t-100 149.5t-37 182zM309 469q0 -49 18.5 -92t50.5 -75 t75 -50.5t92 -18.5h233q49 0 91 18.5t74 51.5t50.5 76t18.5 90v700q0 49 -18.5 91.5t-51.5 75t-75 51t-89 18.5h-233q-49 0 -92 -18.5t-75 -50t-50.5 -75t-18.5 -92.5v-700z" />
<glyph unicode="P" horiz-adv-x="1271" d="M88 0v1638h703q96 0 181 -36.5t148.5 -101t100 -149.5t36.5 -182q0 -96 -36.5 -181t-101 -148.5t-149.5 -100.5t-179 -37h-469v-702h-234zM322 936h469q49 0 91 18.5t73.5 51t50 74.5t18.5 89q0 49 -18.5 91.5t-51 75t-74.5 51t-89 18.5h-469v-469z" />
<glyph unicode="Q" horiz-adv-x="1460" d="M78 469v700q0 96 37 181.5t100.5 150t149.5 101t182 36.5h233q96 0 181.5 -36.5t149 -101t100 -149.5t36.5 -182v-700q0 -117 -51 -217l211 -252h-305l-66 78q-119 -78 -256 -78h-233q-96 0 -182 37t-149.5 100.5t-100.5 149.5t-37 182zM311 469q0 -49 18.5 -92t50.5 -75 t75 -50.5t92 -18.5h233q55 0 105 25l-176 211h305v700q0 49 -18.5 91.5t-51.5 75t-75 51t-89 18.5h-233q-49 0 -92 -18.5t-75 -50t-50.5 -74.5t-18.5 -93v-700z" />
<glyph unicode="R" horiz-adv-x="1329" d="M88 0v1638h703q96 0 181 -36.5t148.5 -101t100 -149.5t36.5 -182q0 -68 -19 -132t-55 -119.5t-85 -99.5t-111 -73l270 -745h-247l-256 702h-432v-702h-234zM322 936h469q49 0 91 18.5t73.5 51t50 74.5t18.5 89q0 49 -18.5 91.5t-51 75t-74.5 51t-89 18.5h-469v-469z" />
<glyph unicode="S" horiz-adv-x="1302" d="M66 469h233q0 -49 18.5 -92t50 -75t74.5 -50.5t93 -18.5h233q49 0 91 18.5t74 51.5t50 76t18 90t-18 89t-51 75t-75 51t-89 18h-233q-96 0 -181.5 37t-150 100.5t-101 148.5t-36.5 181t36.5 181.5t100 150t149.5 101t183 36.5h233q96 0 181 -36.5t148.5 -101 t100.5 -149.5t37 -182h-234q0 49 -18 91.5t-51 75t-75 51t-89 18.5h-233q-49 0 -92.5 -18.5t-75 -50t-50 -74.5t-18.5 -93q0 -49 18.5 -91t50 -73.5t74.5 -50t93 -18.5h233q94 0 179 -37t149.5 -101.5t101.5 -149.5t37 -179q0 -96 -37 -181t-100.5 -149.5t-148.5 -101.5 t-181 -37h-233q-96 0 -182.5 37t-150 100.5t-100 149.5t-36.5 182z" />
<glyph unicode="T" horiz-adv-x="1234" d="M33 1405v233h1169v-233h-467v-1405h-233v1405h-469z" />
<glyph unicode="U" horiz-adv-x="1335" d="M82 469v1169h233v-1169q0 -49 18.5 -92t50.5 -75t75 -50.5t92 -18.5h233q49 0 91.5 18.5t74 51.5t50 76t18.5 90v1169h233v-1169q0 -96 -36.5 -181t-100 -149.5t-148.5 -101.5t-182 -37h-233q-96 0 -182 37t-149.5 100.5t-100.5 149.5t-37 182z" />
<glyph unicode="V" horiz-adv-x="1482" d="M35 1638h250l456 -1255l457 1255h250l-596 -1638h-221z" />
<glyph unicode="W" horiz-adv-x="2689" d="M55 1638h250l457 -1255l457 1255h249l457 -1255l457 1255h250l-596 -1638h-221l-472 1296l-471 -1296h-221z" />
<glyph unicode="X" horiz-adv-x="1390" d="M68 1638h270l358 -618l357 618h270l-492 -854l453 -784h-270l-318 551l-319 -551h-271l455 784z" />
<glyph unicode="Y" horiz-adv-x="1316" d="M31 1638h270l358 -618l357 618h270l-510 -884v-754h-235v754z" />
<glyph unicode="Z" horiz-adv-x="1447" d="M80 0v233l981 1172h-981v233h1288v-233l-983 -1172h983v-233h-1288z" />
<glyph unicode="[" horiz-adv-x="616" d="M90 -469v2107h469v-233h-235v-1638h235v-236h-469z" />
<glyph unicode="\" horiz-adv-x="872" d="M12 1638h250l596 -1638h-250z" />
<glyph unicode="]" horiz-adv-x="616" d="M55 -233h234v1638h-234v233h469v-2107h-469v236z" />
<glyph unicode="^" horiz-adv-x="587" d="M43 1405l197 233h106l197 -233h-183l-67 80l-66 -80h-184z" />
<glyph unicode="_" horiz-adv-x="1351" d="M90 0h1170v-233h-1170v233z" />
<glyph unicode="`" horiz-adv-x="329" d="M43 1638h150l86 -233h-150z" />
<glyph unicode="a" horiz-adv-x="1187" d="M72 350q0 74 28.5 137.5t76.5 111.5t111.5 75.5t135.5 27.5h350v117q0 49 -34.5 83t-82.5 34h-235q-47 0 -82 -34t-35 -83h-233q0 72 27.5 135.5t75.5 111.5t111.5 75.5t135.5 27.5h235q72 0 135.5 -27.5t111.5 -75.5t76 -111.5t28 -135.5v-469q0 -47 34.5 -82t81.5 -35 v-233q-131 0 -233 90q-102 -90 -234 -90h-235q-72 0 -135.5 27.5t-111.5 76t-75.5 112t-27.5 134.5zM305 350q0 -47 35 -82t82 -35h235q47 0 82 35t35 82v119h-350q-49 0 -84 -35t-35 -84z" />
<glyph unicode="b" horiz-adv-x="1060" d="M90 0v1638h234v-522q53 53 116 53h236q72 0 135 -27.5t111.5 -75.5t76 -111.5t27.5 -135.5v-469q0 -72 -27.5 -135t-76 -111.5t-111.5 -76t-135 -27.5h-236q-63 0 -116 53v-53h-234zM324 350q0 -47 34.5 -82t81.5 -35h236q47 0 82 35t35 82v469q0 49 -35 83t-82 34h-236 q-47 0 -81.5 -34t-34.5 -83v-469z" />
<glyph unicode="c" horiz-adv-x="1079" d="M78 350v469q0 72 27.5 135.5t75.5 111.5t111.5 75.5t135.5 27.5h236q72 0 135 -27.5t111 -75.5t76 -111.5t28 -135.5h-234q0 49 -34.5 83t-81.5 34h-236q-47 0 -82 -34t-35 -83v-469q0 -47 35 -82t82 -35h236q47 0 81.5 35t34.5 82h234q0 -72 -28 -135t-76 -111.5 t-111.5 -76t-134.5 -27.5h-236q-72 0 -135.5 27.5t-111.5 76t-75.5 112t-27.5 134.5z" />
<glyph unicode="d" horiz-adv-x="1060" d="M33 350v469q0 72 27.5 135.5t75.5 111.5t111.5 75.5t135.5 27.5h235q63 0 117 -53v522h234v-1638h-234v53q-53 -53 -117 -53h-235q-72 0 -135.5 27.5t-111.5 76t-75.5 112t-27.5 134.5zM266 350q0 -47 35 -82t82 -35h235q47 0 82 35t35 82v469q0 49 -34.5 83t-82.5 34 h-235q-47 0 -82 -34t-35 -83v-469z" />
<glyph unicode="e" horiz-adv-x="1087" d="M78 350v469q0 72 27.5 135.5t75.5 111.5t111.5 75.5t135.5 27.5h236q72 0 135 -27.5t111 -75.5t76 -111.5t28 -135.5v-350h-703v-119q0 -47 35 -82t82 -35h236q47 0 81.5 35t34.5 82h234q0 -72 -28 -135t-76 -111.5t-111.5 -76t-134.5 -27.5h-236q-72 0 -135.5 27.5 t-111.5 76t-75.5 112t-27.5 134.5zM311 702h469v117q0 49 -34.5 83t-81.5 34h-236q-47 0 -82 -34t-35 -83v-117z" />
<glyph unicode="f" horiz-adv-x="768" d="M18 936v233h234v119q0 74 28.5 137.5t77 110.5t111.5 74.5t135 27.5h117v-233h-117q-49 0 -83 -35t-34 -82v-119h234v-233h-234v-936h-235v936h-234z" />
<glyph unicode="g" horiz-adv-x="1107" d="M80 -227h588q49 0 83.5 34.5t34.5 83.5v162q-53 -53 -118 -53h-236q-74 0 -137.5 27.5t-111.5 76t-75.5 112t-27.5 136.5v471q0 74 28.5 137.5t76.5 111.5t111.5 76t135.5 28h236q66 0 118 -54v54h234v-1285q0 -72 -26.5 -135t-74 -111t-109.5 -77t-132 -31h-598v236z M315 352q0 -47 35 -81.5t82 -34.5h236q49 0 83.5 34.5t34.5 81.5v471q0 49 -34.5 83t-83.5 34h-236q-47 0 -82 -34t-35 -83v-471z" />
<glyph unicode="h" horiz-adv-x="1062" d="M90 0v1638h234v-522q53 53 116 53h236q72 0 135 -27.5t111.5 -75.5t76 -111.5t27.5 -135.5v-819h-233v819q0 49 -35 83t-82 34h-236q-47 0 -81.5 -34t-34.5 -83v-819h-234z" />
<glyph unicode="i" horiz-adv-x="411" d="M86 0v1169h233v-1169h-233zM86 1405v233h233v-233h-233z" />
<glyph unicode="j" horiz-adv-x="450" d="M25 -233q47 0 81.5 33.5t34.5 82.5v1286h234v-1286q0 -72 -28 -136t-76 -112.5t-111.5 -76t-134.5 -27.5v236zM141 1405v233h234v-233h-234z" />
<glyph unicode="k" horiz-adv-x="980" d="M90 0v1638h234v-870l338 401h307l-492 -583l492 -586h-307l-338 403v-403h-234z" />
<glyph unicode="l" horiz-adv-x="419" d="M90 0v1638h234v-1638h-234z" />
<glyph unicode="m" horiz-adv-x="1806" d="M84 0v1169h233v-53q53 53 117 53h236q133 0 233 -88q100 88 234 88h235q72 0 135.5 -28.5t111.5 -75.5t75.5 -111.5t27.5 -134.5v-819h-233v819q0 49 -35 83t-82 34h-235q-47 0 -82 -34t-35 -83v-819h-234v819q0 49 -34.5 83t-81.5 34h-236q-47 0 -82 -34t-35 -83v-819 h-233z" />
<glyph unicode="n" horiz-adv-x="1112" d="M90 0v1169h234v-53q53 53 116 53h236q72 0 135 -27.5t111.5 -75.5t76 -111.5t27.5 -135.5v-819h-233v819q0 49 -35 83t-82 34h-236q-47 0 -81.5 -34t-34.5 -83v-819h-234z" />
<glyph unicode="o" horiz-adv-x="1093" d="M78 350v469q0 72 27.5 135.5t75.5 111.5t111.5 75.5t135.5 27.5h236q72 0 135 -27.5t111 -75.5t76 -111.5t28 -135.5v-469q0 -72 -28 -135t-76 -111.5t-111.5 -76t-134.5 -27.5h-236q-72 0 -135.5 27.5t-111.5 76t-75.5 112t-27.5 134.5zM311 350q0 -47 35 -82t82 -35 h236q47 0 81.5 35t34.5 82v469q0 49 -34.5 83t-81.5 34h-236q-47 0 -82 -34t-35 -83v-469z" />
<glyph unicode="p" horiz-adv-x="1058" d="M90 -469v1638h234v-53q53 53 116 53h236q72 0 135 -27.5t111.5 -75.5t76 -111.5t27.5 -135.5v-469q0 -72 -27.5 -135t-76 -111.5t-111.5 -76t-135 -27.5h-236q-63 0 -116 53v-522h-234zM324 350q0 -47 34.5 -82t81.5 -35h236q47 0 82 35t35 82v469q0 49 -35 83t-82 34 h-236q-47 0 -81.5 -34t-34.5 -83v-469z" />
<glyph unicode="q" horiz-adv-x="1060" d="M33 350v469q0 72 27.5 135.5t75.5 111.5t111.5 75.5t135.5 27.5h235q63 0 117 -53v53h234v-1638h-234v522q-53 -53 -117 -53h-235q-72 0 -135.5 27.5t-111.5 76t-75.5 112t-27.5 134.5zM266 350q0 -47 35 -82t82 -35h235q47 0 82 35t35 82v469q0 49 -34.5 83t-82.5 34 h-235q-47 0 -82 -34t-35 -83v-469z" />
<glyph unicode="r" horiz-adv-x="696" d="M90 0v1169h234v-53q53 53 116 53h236v-233h-236q-47 0 -81.5 -34t-34.5 -83v-819h-234z" />
<glyph unicode="s" horiz-adv-x="1077" d="M70 350h233q0 -47 35 -82t82 -35h235q47 0 82 35t35 82q0 49 -35 84t-82 35h-235q-72 0 -135.5 27.5t-111.5 74.5t-75.5 110.5t-27.5 137.5q0 72 27.5 135.5t75.5 111.5t111.5 75.5t135.5 27.5h235q72 0 135.5 -27.5t111.5 -75.5t76 -111.5t28 -135.5h-234q0 49 -35 83 t-82 34h-235q-47 0 -82 -34t-35 -83t35 -83t82 -34h235q72 0 135.5 -27.5t111.5 -75.5t76 -112.5t28 -136.5t-28 -135t-76 -111.5t-111.5 -76t-135.5 -27.5h-235q-72 0 -135.5 27.5t-111.5 76t-75.5 112t-27.5 134.5z" />
<glyph unicode="t" horiz-adv-x="772" d="M18 936v233h234v469h235v-469h234v-233h-234v-586q0 -47 34 -82t83 -35h117v-233h-117q-72 0 -136.5 27.5t-112.5 75t-75.5 112t-27.5 135.5v586h-234z" />
<glyph unicode="u" horiz-adv-x="1112" d="M84 350v819h233v-819q0 -47 35 -82t82 -35h236q47 0 81.5 35t34.5 82v819h234v-1169h-234v53q-53 -53 -116 -53h-236q-72 0 -135 27.5t-111.5 76t-76 112t-27.5 134.5z" />
<glyph unicode="v" horiz-adv-x="1181" d="M39 1169h250l301 -827l301 827h250l-426 -1169h-250z" />
<glyph unicode="w" horiz-adv-x="2072" d="M59 1169h250l301 -827l301 827h250l301 -827l301 827h250l-426 -1169h-250l-301 827l-301 -827h-250z" />
<glyph unicode="x" horiz-adv-x="1095" d="M74 0l338 586l-338 583h270l203 -350l203 350h270l-338 -583l338 -586h-270l-203 350l-203 -350h-270z" />
<glyph unicode="y" horiz-adv-x="1173" d="M47 1169h250l301 -827l301 827h250l-598 -1638h-248l170 469z" />
<glyph unicode="z" horiz-adv-x="1034" d="M90 0v233l590 703h-590v233h895v-233l-590 -703h590v-233h-895z" />
<glyph unicode="{" horiz-adv-x="575" d="M29 469v233q49 0 82.5 34t33.5 83v469q0 74 29 137.5t77 110.5t111.5 74.5t135.5 27.5v-233q-49 0 -84 -35t-35 -82v-469q0 -133 -88 -233q88 -100 88 -236v-467q0 -49 35 -82.5t84 -33.5v-236q-72 0 -135.5 27.5t-111.5 75t-77 112t-29 137.5v467q0 49 -33.5 84 t-82.5 35z" />
<glyph unicode="|" horiz-adv-x="419" d="M90 -469v2107h234v-2107h-234z" />
<glyph unicode="}" horiz-adv-x="573" d="M76 -233q49 0 83 33.5t34 82.5v467q0 133 90 236q-90 102 -90 233v469q0 47 -34 82t-83 35v233q70 0 134 -27.5t111.5 -75.5t76 -111.5t28.5 -135.5v-469q0 -49 35 -83t84 -34v-233q-49 0 -84 -35t-35 -84v-467q0 -72 -27.5 -136t-76 -112.5t-112 -76t-134.5 -27.5v236z " />
<glyph unicode="~" horiz-adv-x="1017" d="M63 1475q102 158 293 157q100 0 191 -55q51 -33 112 -33q115 0 177 94l116 -75q-102 -160 -293 -160q-102 0 -190 57q-51 33 -113 33q-115 0 -176 -94z" />
<glyph unicode="&#xa1;" horiz-adv-x="411" d="M86 0v1169h233v-1169h-233zM86 1405v233h233v-233h-233z" />
<glyph unicode="&#xa2;" horiz-adv-x="1021" d="M53 350v469q0 72 28 135.5t76 111.5t111.5 75.5t134.5 27.5h207l84 236h250l-108 -297q154 -104 153 -289h-233q0 25 -8 43l-230 -629h121q47 0 82 35t35 82h233q0 -72 -27.5 -135t-75.5 -111.5t-111.5 -76t-135.5 -27.5h-207l-84 -233h-250l109 294q-154 104 -154 289z M287 350q0 -25 8 -43l229 629h-121q-47 0 -81.5 -34t-34.5 -83v-469z" />
<glyph unicode="&#xa3;" horiz-adv-x="1083" d="M84 0v1169q0 96 37 181.5t100.5 150t149.5 101t182 36.5t181 -36.5t148.5 -101t100.5 -149.5t37 -182h-234q0 49 -18 91.5t-51 75t-75 51t-89 18.5q-49 0 -92 -18.5t-75 -50t-50.5 -75t-18.5 -92.5v-233h469v-234h-469v-469h703v-233h-936z" />
<glyph unicode="&#xa4;" horiz-adv-x="1630" d="M72 0l331 395q-57 88 -57 193v233q0 106 57 191l-329 393h307l209 -250q55 16 108 16h234q53 0 108 -16l209 250h307l-329 -393q57 -84 57 -191v-233q0 -104 -57 -193l332 -395h-306l-213 254q-53 -18 -108 -18h-234q-57 0 -108 18l-213 -254h-305zM582 588 q0 -49 33.5 -84t82.5 -35h234q49 0 83 35t34 84v233q0 47 -34 82t-83 35h-234q-49 0 -82.5 -35t-33.5 -82v-233z" />
<glyph unicode="&#xa5;" horiz-adv-x="1355" d="M49 1638h270l359 -618l356 618h271l-406 -702h363v-234h-467v-233h467v-236h-467v-233h-236v233h-467v236h467v233h-467v234h363z" />
<glyph unicode="&#xa6;" horiz-adv-x="370" d="M90 233h234v-702h-234v702zM90 936v702h234v-702h-234z" />
<glyph unicode="&#xa7;" horiz-adv-x="1316" d="M74 0h233q0 -49 18.5 -91t51.5 -74t76 -50t90 -18h233q47 0 89 18t75 50t51.5 75t18.5 90t-18.5 89t-51.5 75t-75 51t-89 18h-233q-96 0 -182.5 37t-150 100.5t-100 149.5t-36.5 182q0 127 63 234q-63 106 -63 233q0 96 36.5 181.5t100 150t149.5 101t183 36.5h233 q96 0 181 -36.5t148.5 -101t100.5 -149.5t37 -182h-233q0 49 -18.5 91.5t-51.5 75t-75 51t-89 18.5h-233q-49 0 -92 -18.5t-75 -50t-50.5 -74.5t-18.5 -93q0 -49 18.5 -91t50.5 -73.5t75 -50t92 -18.5h233q94 0 179 -37t149.5 -101.5t101.5 -149.5t37 -179q0 -129 -61 -236 q61 -109 61 -233q0 -96 -37 -181t-101.5 -148.5t-149.5 -101.5t-179 -38h-233q-96 0 -181.5 37t-150 101.5t-101 149.5t-36.5 181zM307 702q0 -49 18.5 -91t50.5 -73.5t75 -50t92 -18.5h233q119 0 228 -59q6 26 6 59q0 47 -18.5 89t-51.5 75t-75 51t-89 18h-233 q-119 0 -228 60q-8 -27 -8 -60z" />
<glyph unicode="&#xa8;" horiz-adv-x="884" d="M90 1405v233h234v-233h-234zM559 1405v233h234v-233h-234z" />
<glyph unicode="&#xa9;" horiz-adv-x="2041" d="M84 0v1169q0 96 37 181.5t100.5 150t149.5 101t182 36.5h936q96 0 181 -36.5t148.5 -101t100.5 -149.5t37 -182v-1169q0 -96 -37 -181t-101.5 -148.5t-149.5 -101.5t-179 -38h-936q-96 0 -181 37t-149.5 101.5t-101.5 149.5t-37 181zM317 0q0 -49 18.5 -91t51.5 -74 t76 -50t90 -18h936q47 0 89 18t75 50t51 75t18 90v1169q0 49 -18 91.5t-51 75t-75 51t-89 18.5h-936q-49 0 -92 -18.5t-75 -50t-50.5 -74.5t-18.5 -93v-1169zM553 350v469q0 72 27.5 135.5t74.5 111.5t111.5 75.5t136.5 27.5h234q72 0 136 -27.5t112.5 -75.5t76 -111.5 t27.5 -135.5h-236q0 49 -33.5 83t-82.5 34h-234q-49 0 -83 -34t-34 -83v-469q0 -47 34 -82t83 -35h234q49 0 82.5 35t33.5 82h236q0 -72 -27.5 -135t-76 -110.5t-112 -76t-136.5 -28.5h-234q-74 0 -137.5 27.5t-110.5 76t-74.5 112t-27.5 134.5z" />
<glyph unicode="&#xaa;" horiz-adv-x="768" d="M72 1147q0 43 16 82t46 67.5t68 45t81 16.5h211v69q0 29 -20.5 49.5t-51.5 20.5h-139q-29 0 -49.5 -20.5t-20.5 -49.5h-141q0 43 16 82t45 68t68 45t82 16h139q43 0 82 -16t67.5 -45t45 -68t16.5 -82v-280q0 -29 20.5 -49.5t51.5 -20.5v-141q-82 0 -142 53 q-59 -53 -141 -53h-139q-43 0 -82 16.5t-68 45t-45 67.5t-16 82zM213 1147q0 -29 20.5 -49.5t49.5 -20.5h139q31 0 51.5 20.5t20.5 49.5v70h-211q-29 0 -49.5 -20.5t-20.5 -49.5z" />
<glyph unicode="&#xab;" horiz-adv-x="1157" d="M61 586l203 350h271l-203 -350l203 -353h-271zM602 586l203 350h270l-203 -350l203 -353h-270z" />
<glyph unicode="&#xad;" d="M86 469v233h936v-233h-936z" />
<glyph unicode="&#xae;" horiz-adv-x="2041" d="M84 0v1169q0 96 37 181.5t100.5 150t149.5 101t182 36.5h936q96 0 181 -36.5t148.5 -101t100.5 -149.5t37 -182v-1169q0 -96 -37 -181t-101.5 -148.5t-149.5 -101.5t-179 -38h-936q-96 0 -181 37t-149.5 101.5t-101.5 149.5t-37 181zM317 0q0 -49 18.5 -91t51.5 -74 t76 -50t90 -18h936q47 0 89 18t75 50t51 75t18 90v1169q0 49 -18 91.5t-51 75t-75 51t-89 18.5h-936q-49 0 -92 -18.5t-75 -50t-50.5 -74.5t-18.5 -93v-1169zM553 0v1169h584q72 0 136 -27.5t112.5 -75.5t76 -111.5t27.5 -135.5q0 -98 -50 -181t-136 -128l186 -510h-250 l-170 469h-283v-469h-233zM786 702h351q49 0 82.5 34t33.5 83t-33.5 83t-82.5 34h-351v-234z" />
<glyph unicode="&#xaf;" horiz-adv-x="1351" d="M90 1638v234h1170v-234h-1170z" />
<glyph unicode="&#xb0;" horiz-adv-x="1085" d="M76 1055v233q0 72 27.5 135.5t74.5 111.5t111.5 75.5t136.5 27.5h233q72 0 135.5 -27.5t111.5 -75.5t76 -111.5t28 -135.5v-233q0 -72 -28 -136.5t-76 -111.5t-111.5 -74.5t-135.5 -27.5h-233q-72 0 -136.5 27.5t-111.5 74.5t-74.5 111.5t-27.5 136.5zM309 1055 q0 -49 35 -83t82 -34h233q49 0 83 34t34 83v233q0 47 -33.5 82t-83.5 35h-233q-47 0 -82 -35t-35 -82v-233z" />
<glyph unicode="&#xb1;" horiz-adv-x="1044" d="M53 0v233h936v-233h-936zM53 702v234h350v233h236v-233h350v-234h-350v-233h-236v233h-350z" />
<glyph unicode="&#xb2;" horiz-adv-x="720" d="M78 942v205q0 43 16.5 81t45 67.5t67.5 46t82 16.5h139q31 0 51.5 20.5t20.5 48.5q0 29 -20.5 49.5t-51.5 20.5h-139q-29 0 -49.5 -20.5t-20.5 -49.5h-141q0 43 16.5 82t45 68t67.5 45t82 16h139q43 0 82 -16t67.5 -45t45 -68t16.5 -82t-16.5 -80.5t-45 -67.5t-67.5 -46 t-82 -16h-139q-29 0 -49.5 -20.5t-20.5 -49.5v-66h420v-139h-561z" />
<glyph unicode="&#xb3;" horiz-adv-x="702" d="M63 1147h142q0 -29 20.5 -49.5t48.5 -20.5h140q31 0 51 20.5t20 49.5t-20.5 49.5t-50.5 20.5h-140v141h140q31 0 51 20.5t20 48.5q0 29 -20.5 49.5t-50.5 20.5h-140q-29 0 -49 -20.5t-20 -49.5h-142q0 43 16.5 82t45.5 68t67.5 45t81.5 16h140q43 0 82 -16t67.5 -45 t45 -68t16.5 -82q0 -80 -54 -139q53 -63 54 -141q0 -43 -16.5 -82t-45 -67.5t-67.5 -45t-82 -16.5h-140q-43 0 -81.5 16.5t-67.5 45t-45.5 67.5t-16.5 82z" />
<glyph unicode="&#xb4;" horiz-adv-x="327" d="M47 1405l86 233h150l-86 -233h-150z" />
<glyph unicode="&#xb5;" horiz-adv-x="1169" d="M90 -469v1638h234v-819q0 -47 34.5 -82t81.5 -35h236q47 0 82 35t35 82v819h233v-819q0 -47 35 -82t82 -35v-233q-132 0 -234 90q-102 -90 -233 -90h-236q-63 0 -116 53v-522h-234z" />
<glyph unicode="&#xb6;" horiz-adv-x="1300" d="M39 1169q0 96 37 181.5t100.5 150t149.5 101t182 36.5h700v-1638h-233v1405h-234v-1405h-233v702q-96 0 -181 37t-149.5 100.5t-101.5 148.5t-37 181z" />
<glyph unicode="&#xb7;" horiz-adv-x="419" d="M90 702v234h234v-234h-234z" />
<glyph unicode="&#xb8;" horiz-adv-x="317" d="M70 -70q29 0 49 20.5t20 49.5h142q0 -43 -16.5 -81t-46.5 -67.5t-67.5 -46t-80.5 -16.5v141z" />
<glyph unicode="&#xb9;" horiz-adv-x="399" d="M25 1253v217l141 168h139v-696h-139v477z" />
<glyph unicode="&#xba;" horiz-adv-x="718" d="M78 1147v280q0 43 16.5 82t45 68t67.5 45t82 16h139q43 0 82 -16t67.5 -45t45 -68t16.5 -82v-280q0 -43 -16.5 -82t-45 -67.5t-67.5 -45t-82 -16.5h-139q-43 0 -82 16.5t-67.5 45t-45 67.5t-16.5 82zM219 1147q0 -29 20.5 -49.5t49.5 -20.5h139q31 0 51.5 20.5t20.5 49.5 v280q0 29 -20.5 49.5t-51.5 20.5h-139q-29 0 -49.5 -20.5t-20.5 -49.5v-280z" />
<glyph unicode="&#xbb;" horiz-adv-x="1157" d="M82 233l203 353l-203 350h270l203 -350l-203 -353h-270zM623 233l202 353l-202 350h270l203 -350l-203 -353h-270z" />
<glyph unicode="&#xbc;" horiz-adv-x="1243" d="M61 0l947 1638h161l-946 -1638h-162zM170 1253v217l141 168h140v-696h-140v477zM608 141v140l154 421h149l-153 -421h131v141h139v-141h141v-140h-141v-141h-139v141h-281z" />
<glyph unicode="&#xbd;" horiz-adv-x="1294" d="M63 0l947 1638h161l-946 -1638h-162zM172 1253v217l141 168h140v-696h-140v477zM670 0v205q0 43 16 82t45 67.5t68 45t82 16.5h139q29 0 49.5 20.5t20.5 50.5q0 29 -20.5 49.5t-49.5 20.5h-139q-31 0 -51.5 -20.5t-20.5 -49.5h-139q0 43 16 81t45 67t68 45t82 16h139 q43 0 82 -16t67.5 -45t45 -67t16.5 -81t-16.5 -81.5t-45 -67.5t-67.5 -45.5t-82 -16.5h-139q-31 0 -51.5 -20t-20.5 -51v-64h422v-141h-561z" />
<glyph unicode="&#xbe;" horiz-adv-x="1294" d="M66 1147q0 -43 16 -82t45 -67.5t67.5 -45t81.5 -16.5h140q43 0 82 16.5t67.5 45t45 67.5t16.5 82q0 78 -54 141q53 59 54 139q0 43 -16.5 82t-45 68t-67.5 45t-82 16h-140q-43 0 -81.5 -16t-67.5 -45t-45 -68t-16 -82h141q0 29 20.5 49.5t48.5 20.5h140q31 0 51 -20.5 t20 -49.5t-20.5 -49t-50.5 -20h-140v-141h140q31 0 51 -20.5t20 -49.5t-20.5 -49.5t-50.5 -20.5h-140q-29 0 -49 20.5t-20 49.5h-141zM113 0l946 1638h162l-947 -1638h-161zM659 141v140l152 421h150l-152 -421h131v141h139v-141h142v-140h-142v-141h-139v141h-281z" />
<glyph unicode="&#xbf;" horiz-adv-x="1228" d="M35 469q0 96 37 181t101.5 148.5t149.5 100.5t181 37v233h233v-467h-233q-47 0 -90 -18t-76 -50t-51.5 -74t-18.5 -91t18.5 -92t50.5 -75t75 -50.5t92 -18.5h233q49 0 91 18.5t74 51.5t50.5 76t18.5 90h233q0 -96 -37 -181t-100 -149.5t-148 -101.5t-182 -37h-233 q-96 0 -182 37t-149.5 100.5t-100.5 149.5t-37 182zM504 1405v233h233v-233h-233z" />
<glyph unicode="&#xc0;" horiz-adv-x="1460" d="M25 0l596 1638h221l596 -1638h-250l-170 469h-563v31l-181 -500h-249zM528 702h404l-201 553zM573 2107h150l86 -235h-150z" />
<glyph unicode="&#xc1;" horiz-adv-x="1460" d="M23 0l595 1638h222l596 -1638h-250l-170 469h-563v31l-181 -500h-249zM526 702h404l-201 553zM657 1872l86 235h150l-86 -235h-150z" />
<glyph unicode="&#xc2;" horiz-adv-x="1462" d="M25 0l596 1638h221l596 -1638h-250l-170 469h-563v31l-181 -500h-249zM483 1872l197 235h108l197 -235h-184l-66 80l-67 -80h-185zM528 702h404l-201 553z" />
<glyph unicode="&#xc3;" horiz-adv-x="1474" d="M31 0l596 1638h221l596 -1638h-250l-170 469h-563v31l-180 -500h-250zM289 1954q100 160 293 160q100 0 188 -58q51 -33 113 -33q115 0 176 95l117 -76q-102 -158 -293 -158q-102 0 -189 55q-51 33 -112 33q-115 0 -176 -94zM535 702h403l-201 553z" />
<glyph unicode="&#xc4;" horiz-adv-x="1472" d="M29 0l596 1638h221l596 -1638h-250l-170 469h-563v31l-180 -500h-250zM387 1872v235h234v-235h-234zM532 702h404l-201 553zM856 1872v235h234v-235h-234z" />
<glyph unicode="&#xc5;" horiz-adv-x="1501" d="M43 0l575 1585q-104 47 -160.5 135t-56.5 193q0 74 29 137.5t77 110.5t111.5 74.5t135.5 27.5t135 -28.5t111.5 -76t76 -112t27.5 -133.5q0 -53 -16.5 -103.5t-45 -94.5t-69.5 -78.5t-92 -53.5l575 -1583h-250l-170 469h-563v31l-180 -500h-250zM547 702h403l-200 553z M635 1913q0 -49 35 -83t84 -34q47 0 81.5 34t34.5 83q0 47 -34.5 82t-81.5 35q-49 0 -84 -35t-35 -82z" />
<glyph unicode="&#xc6;" horiz-adv-x="550" />
<glyph unicode="&#xc7;" horiz-adv-x="1280" d="M68 469v700q0 96 36.5 181.5t100 150t149.5 101t183 36.5h233q96 0 181 -36.5t148.5 -101t100.5 -149.5t37 -182h-233q0 49 -18.5 91.5t-51.5 75t-75 51t-89 18.5h-233q-49 0 -92.5 -18.5t-75 -50t-50 -74.5t-18.5 -93v-700q0 -49 18.5 -92t50 -75t74.5 -50.5t93 -18.5 h233q49 0 91 18.5t74 51.5t50.5 76t18.5 90h233q0 -96 -37 -181t-100.5 -149.5t-148.5 -101.5t-181 -37h-47q0 -43 -16.5 -81t-45 -67.5t-67.5 -46t-82 -16.5v141q29 0 49.5 20.5t20.5 49.5h-45q-96 0 -182.5 37t-150 100.5t-100 149.5t-36.5 182z" />
<glyph unicode="&#xc8;" horiz-adv-x="1247" d="M61 0v1638h1170v-233h-936v-469h702v-234h-702v-469h936v-233h-1170zM487 2107h150l84 -235h-150z" />
<glyph unicode="&#xc9;" horiz-adv-x="1247" d="M57 0h1170v233h-936v469h702v234h-702v469h936v233h-1170v-1638zM567 1872l86 235h150l-86 -235h-150z" />
<glyph unicode="&#xca;" horiz-adv-x="1251" d="M61 0v1638h1170v-233h-936v-469h702v-234h-702v-469h936v-233h-1170zM397 1872l195 235h108l197 -235h-184l-66 80l-67 -80h-183z" />
<glyph unicode="&#xcb;" horiz-adv-x="1269" d="M70 0h1169v233h-936v469h703v234h-703v469h936v233h-1169v-1638zM303 1872v235h236v-235h-236zM772 1872v235h234v-235h-234z" />
<glyph unicode="&#xcc;" horiz-adv-x="385" d="M43 2107h150l86 -235h-150zM80 0v1638h233v-1638h-233z" />
<glyph unicode="&#xcd;" horiz-adv-x="393" d="M63 0v1638h234v-1638h-234zM123 1872l86 235h88l-25 -235h-149z" />
<glyph unicode="&#xce;" horiz-adv-x="546" d="M23 1872l196 235h170l135 -235h-184l-68 80l-65 -80h-184zM156 0v1638h233v-1638h-233z" />
<glyph unicode="&#xcf;" horiz-adv-x="743" d="M20 1872v235h234v-235h-234zM254 0v1638h233v-1638h-233zM487 1872v235h236v-235h-236z" />
<glyph unicode="&#xd1;" horiz-adv-x="1286" d="M72 0v1638h233l676 -1169v1169h233v-1638h-233l-676 1169v-1169h-233zM195 1946q104 160 294 159q100 0 189 -57q51 -33 113 -33q115 0 176 94l116 -75q-102 -158 -292 -158q-102 0 -189 55q-51 33 -115 33q-113 0 -176 -94z" />
<glyph unicode="&#xd2;" horiz-adv-x="1269" d="M51 469v700q0 96 37 181.5t100.5 150t149.5 101t182 36.5h234q96 0 181 -36.5t148.5 -101t100.5 -149.5t37 -182v-700q0 -96 -37 -181t-100.5 -149.5t-148.5 -101.5t-181 -37h-234q-96 0 -182 37t-149.5 100.5t-100.5 149.5t-37 182zM285 469q0 -49 18.5 -92t50 -75 t74.5 -50.5t92 -18.5h234q49 0 91 18.5t73.5 51.5t50 76t18.5 90v700q0 49 -18.5 91.5t-51 75t-74.5 51t-89 18.5h-234q-49 0 -92 -18.5t-74.5 -50t-50 -75t-18.5 -92.5v-700zM477 2107h150l84 -235h-150z" />
<glyph unicode="&#xd3;" horiz-adv-x="1271" d="M49 469v700q0 96 37 181.5t100.5 150t149.5 101t182 36.5h234q96 0 181 -36.5t148.5 -101t100.5 -149.5t37 -182v-700q0 -96 -37 -181t-100.5 -149.5t-148.5 -101.5t-181 -37h-234q-96 0 -182 37t-149.5 100.5t-100.5 149.5t-37 182zM283 469q0 -49 18 -92t50 -75 t75 -50.5t92 -18.5h234q49 0 91 18.5t73.5 51.5t50 76t18.5 90v700q0 49 -18.5 91.5t-51 75t-74.5 51t-89 18.5h-234q-49 0 -92 -18.5t-75 -50t-50 -75t-18 -92.5v-700zM559 1872l86 235h150l-86 -235h-150z" />
<glyph unicode="&#xd4;" horiz-adv-x="1275" d="M53 469v700q0 96 37 181.5t100.5 150t149.5 101t182 36.5h234q96 0 181 -36.5t148.5 -101t100.5 -149.5t37 -182v-700q0 -96 -37 -181t-100.5 -149.5t-148.5 -101.5t-181 -37h-234q-96 0 -182 37t-149.5 100.5t-100.5 149.5t-37 182zM287 469q0 -49 18.5 -92t50 -75 t74.5 -50.5t92 -18.5h234q49 0 91 18.5t73.5 51.5t50 76t18.5 90v700q0 49 -18.5 91.5t-51 75t-74.5 51t-89 18.5h-234q-49 0 -92 -18.5t-74.5 -50t-50 -75t-18.5 -92.5v-700zM389 1872l195 235h108l197 -235h-184l-66 80l-68 -80h-182z" />
<glyph unicode="&#xd5;" horiz-adv-x="1292" d="M61 469v700q0 96 37 181.5t100.5 150t149.5 101t182 36.5h234q96 0 181 -36.5t148.5 -101t100.5 -149.5t37 -182v-700q0 -96 -37 -181t-100.5 -149.5t-148.5 -101.5t-181 -37h-234q-96 0 -182 37t-149.5 100.5t-100.5 149.5t-37 182zM199 1952q100 160 293 159 q100 0 188 -57q51 -33 115 -33q113 0 176 95l116 -76q-104 -158 -292 -158q-104 0 -191 55q-53 35 -112 35q-115 0 -177 -96zM295 469q0 -49 18.5 -92t50 -75t74.5 -50.5t92 -18.5h234q49 0 91 18.5t74 51.5t50 76t18 90v700q0 49 -18 91.5t-51 75t-75 51t-89 18.5h-234 q-49 0 -92 -18.5t-74.5 -50t-50 -75t-18.5 -92.5v-700z" />
<glyph unicode="&#xd6;" horiz-adv-x="1292" d="M61 469v700q0 96 37 181.5t100.5 150t149.5 101t182 36.5h234q96 0 181 -36.5t148.5 -101t100.5 -149.5t37 -182v-700q0 -96 -37 -181t-100.5 -149.5t-148.5 -101.5t-181 -37h-234q-96 0 -182 37t-149.5 100.5t-100.5 149.5t-37 182zM295 469q0 -49 18.5 -92t50 -75 t74.5 -50.5t92 -18.5h234q49 0 91 18.5t74 51.5t50 76t18 90v700q0 49 -18 91.5t-51 75t-75 51t-89 18.5h-234q-49 0 -92 -18.5t-74.5 -50t-50 -75t-18.5 -92.5v-700zM295 1872v235h235v-235h-235zM764 1872v235h233v-235h-233z" />
<glyph unicode="&#xd7;" horiz-adv-x="1048" d="M76 233l295 353l-295 350h305l141 -168l144 168h305l-295 -350l295 -353h-305l-144 170l-141 -170h-305z" />
<glyph unicode="&#xd8;" horiz-adv-x="1290" d="M59 469v700q0 96 37 181.5t100.5 150t149.5 101t182 36.5h234q14 0 27.5 -1t27.5 -3l86 238h250l-119 -322q195 -141 195 -381v-700q0 -96 -37 -181t-100.5 -149.5t-148.5 -101.5t-181 -37h-236q-14 0 -26.5 1t-26.5 3l-86 -235h-250l117 319q-195 141 -195 381zM293 469 q0 -78 47 -141l393 1077h-205q-49 0 -92 -18.5t-74.5 -50t-50 -74.5t-18.5 -93v-700zM557 233h205q49 0 91 18.5t73.5 51.5t50 76t18.5 90v700q0 79 -47 142z" />
<glyph unicode="&#xd9;" horiz-adv-x="1282" d="M57 469v1169h234v-1169q0 -49 18.5 -92t50 -75t74.5 -50.5t92 -18.5h234q49 0 91 18.5t73.5 51.5t50 76t18.5 90v1169h234v-1169q0 -96 -37 -181t-100.5 -149.5t-148.5 -101.5t-181 -37h-234q-96 0 -182 37t-149.5 100.5t-100.5 149.5t-37 182zM483 2107h150l84 -235 h-150z" />
<glyph unicode="&#xda;" horiz-adv-x="1280" d="M53 469v1169h234v-1169q0 -49 18.5 -92t50 -75t74.5 -50.5t92 -18.5h234q49 0 91 18.5t73.5 51.5t50 76t18.5 90v1169h234v-1169q0 -96 -37 -181t-100.5 -149.5t-148.5 -101.5t-181 -37h-234q-96 0 -182 37t-149.5 100.5t-100.5 149.5t-37 182zM563 1872l86 235h150 l-86 -235h-150z" />
<glyph unicode="&#xdb;" horiz-adv-x="1286" d="M57 469v1169h234v-1169q0 -49 18.5 -92t50 -75t74.5 -50.5t92 -18.5h234q49 0 91 18.5t73.5 51.5t50 76t18.5 90v1169h234v-1169q0 -96 -37 -181t-100.5 -149.5t-148.5 -101.5t-181 -37h-234q-96 0 -182 37t-149.5 100.5t-100.5 149.5t-37 182zM393 1872l195 235h108 l197 -235h-184l-66 80l-68 -80h-182z" />
<glyph unicode="&#xdc;" horiz-adv-x="1302" d="M66 469v1169h233v-1169q0 -49 18.5 -92t50 -75t74.5 -50.5t93 -18.5h233q49 0 91 18.5t74 51.5t50 76t18 90v1169h234v-1169q0 -96 -37 -181t-100.5 -149.5t-148.5 -101.5t-181 -37h-233q-96 0 -182.5 37t-150 100.5t-100 149.5t-36.5 182zM299 1872v235h236v-235h-236z M768 1872v235h233v-235h-233z" />
<glyph unicode="&#xdd;" horiz-adv-x="1282" d="M12 1638h271l358 -618l356 618h271l-510 -884v-754h-236v754zM563 1872l86 235h109l-45 -235h-150z" />
<glyph unicode="&#xdf;" horiz-adv-x="1103" d="M86 0v1288q0 72 28.5 135.5t77 111.5t112 75.5t132.5 27.5h236q70 0 134 -27.5t111.5 -75.5t76 -111.5t28.5 -135.5v-235q0 -131 -90 -234q90 -102 90 -233v-236q0 -72 -27.5 -135t-76 -111.5t-112 -76t-134.5 -27.5h-117v233h117q47 0 81.5 35t34.5 82v236 q0 47 -34.5 81.5t-81.5 34.5h-117v234h117q47 0 81.5 35t34.5 82v235q0 47 -34.5 82t-81.5 35h-236q-47 0 -82 -35t-35 -82v-1288h-233z" />
<glyph unicode="&#xe0;" horiz-adv-x="1132" d="M47 350q0 74 28.5 137.5t77 111.5t112 75.5t134.5 27.5h351v117q0 49 -35 83t-82 34h-236q-47 0 -81.5 -34t-34.5 -83h-234q0 72 27.5 135.5t76 111.5t112 75.5t134.5 27.5h236q72 0 135 -27.5t111.5 -75.5t76 -111.5t27.5 -135.5v-469q0 -47 35 -82t82 -35v-233 q-131 0 -234 90q-102 -90 -233 -90h-236q-72 0 -135 27.5t-111.5 76t-76 112t-27.5 134.5zM281 350q0 -47 34.5 -82t81.5 -35h236q47 0 82 35t35 82v119h-351q-49 0 -83.5 -35t-34.5 -84zM354 1638h150l86 -233h-150z" />
<glyph unicode="&#xe1;" horiz-adv-x="1132" d="M41 350q0 74 28.5 137.5t77 111.5t112 75.5t134.5 27.5h350v117q0 49 -34.5 83t-81.5 34h-236q-47 0 -82 -34t-35 -83h-233q0 72 27.5 135.5t76 111.5t111.5 75.5t135 27.5h236q72 0 135 -27.5t111.5 -75.5t76 -111.5t27.5 -135.5v-469q0 -47 35 -82t82 -35v-233 q-131 0 -234 90q-102 -90 -233 -90h-236q-72 0 -135 27.5t-111.5 76t-76 112t-27.5 134.5zM274 350q0 -47 35 -82t82 -35h236q47 0 81.5 35t34.5 82v119h-350q-49 0 -84 -35t-35 -84zM434 1405l86 233h150l-86 -233h-150z" />
<glyph unicode="&#xe2;" horiz-adv-x="1140" d="M49 350q0 74 28.5 137.5t77 111.5t112 75.5t134.5 27.5h351v117q0 49 -35 83t-82 34h-236q-47 0 -81.5 -34t-34.5 -83h-234q0 72 27.5 135.5t76 111.5t112 75.5t134.5 27.5h236q72 0 135.5 -27.5t111.5 -75.5t75.5 -111.5t27.5 -135.5v-469q0 -47 35 -82t82 -35v-233 q-131 0 -234 90q-102 -90 -233 -90h-236q-72 0 -135 27.5t-111.5 76t-76 112t-27.5 134.5zM266 1405l197 233h108l197 -233h-184l-66 80l-67 -80h-185zM283 350q0 -47 34.5 -82t81.5 -35h236q47 0 82 35t35 82v119h-351q-49 0 -83.5 -35t-34.5 -84z" />
<glyph unicode="&#xe3;" horiz-adv-x="1171" d="M66 350q0 74 28.5 137.5t76.5 111.5t111.5 75.5t135.5 27.5h350v117q0 49 -35 83t-82 34h-235q-47 0 -82 -34t-35 -83h-233q0 72 27.5 135.5t75.5 111.5t111.5 75.5t135.5 27.5h235q72 0 135.5 -27.5t111.5 -75.5t75.5 -111.5t27.5 -135.5v-469q0 -47 35 -82t82 -35v-233 q-131 0 -233 90q-102 -90 -234 -90h-235q-72 0 -135.5 27.5t-111.5 76t-75.5 112t-27.5 134.5zM86 1485q102 158 293 157q100 0 190 -55q53 -35 113 -35q115 0 176 97l117 -76q-102 -160 -293 -160q-102 0 -190 57q-51 33 -113 33q-115 0 -176 -96zM299 350q0 -47 35 -82 t82 -35h235q47 0 82 35t35 82v119h-350q-49 0 -84 -35t-35 -84z" />
<glyph unicode="&#xe4;" horiz-adv-x="1169" d="M63 350q0 74 29 137.5t77 111.5t111.5 75.5t135.5 27.5h350v117q0 49 -35 83t-82 34h-235q-47 0 -82 -34t-35 -83h-234q0 72 28 135.5t76 111.5t111.5 75.5t135.5 27.5h235q72 0 135.5 -27.5t111.5 -75.5t75.5 -111.5t27.5 -135.5v-469q0 -47 35 -82t82 -35v-233 q-131 0 -233 90q-102 -90 -234 -90h-235q-72 0 -135.5 27.5t-111.5 76t-76 112t-28 134.5zM180 1405v233h234v-233h-234zM297 350q0 -47 35 -82t82 -35h235q47 0 82 35t35 82v119h-350q-49 0 -84 -35t-35 -84zM649 1405v233h234v-233h-234z" />
<glyph unicode="&#xe5;" horiz-adv-x="1153" d="M55 350q0 74 29 137.5t77 111.5t111.5 75.5t135.5 27.5h350v117q0 49 -35 83t-82 34h-235q-47 0 -82 -34t-35 -83h-234q0 72 28 135.5t76 111.5t111.5 75.5t135.5 27.5h235q72 0 135.5 -27.5t111.5 -75.5t75.5 -111.5t27.5 -135.5v-469q0 -47 35 -82t82 -35v-233 q-131 0 -234 90q-102 -90 -233 -90h-235q-72 0 -135.5 27.5t-111.5 76t-76 112t-28 134.5zM289 350q0 -47 34.5 -82t82.5 -35h235q47 0 82 35t35 82v119h-350q-49 0 -84 -35t-35 -84zM313 1427q0 43 16.5 81t45 68t67.5 46t82 16t81 -16t66.5 -46t45 -68t16.5 -81 t-16.5 -81.5t-45 -67.5t-66.5 -45t-81 -16t-82 16t-67.5 45t-45 67.5t-16.5 81.5zM453 1427q0 -29 20.5 -50t50.5 -21q29 0 49.5 21.5t20.5 49.5q0 29 -20.5 49.5t-49.5 20.5q-31 0 -51 -20.5t-20 -49.5z" />
<glyph unicode="&#xe6;" horiz-adv-x="550" />
<glyph unicode="&#xe7;" horiz-adv-x="1038" d="M63 350v469q0 72 28 135.5t76 111.5t111.5 75.5t135.5 27.5h235q72 0 135.5 -27.5t111.5 -75.5t75.5 -111.5t27.5 -135.5h-233q0 49 -35 83t-82 34h-235q-47 0 -82 -34t-35 -83v-469q0 -47 35 -82t82 -35h235q47 0 82 35t35 82h233q0 -72 -27.5 -135t-75.5 -111.5 t-111.5 -76t-135.5 -27.5h-47q0 -43 -16.5 -81t-46 -67.5t-67.5 -46t-81 -16.5v141l-35 318l27 -248q-68 4 -126 35t-101 78t-68 108.5t-25 128.5zM383 0l8 -70q29 0 49.5 20.5t20.5 49.5h-78z" />
<glyph unicode="&#xe8;" horiz-adv-x="1030" d="M51 350v469q0 72 27.5 135.5t76 111.5t112 75.5t134.5 27.5h236q72 0 135.5 -27.5t111.5 -75.5t75.5 -111.5t27.5 -135.5v-350h-702v-119q0 -47 34.5 -82t81.5 -35h236q47 0 82 35t35 82h233q0 -72 -27.5 -135t-75.5 -111.5t-111.5 -76t-135.5 -27.5h-236 q-72 0 -135 27.5t-111.5 76t-76 112t-27.5 134.5zM285 702h469v117q0 49 -35 83t-82 34h-236q-47 0 -81.5 -34t-34.5 -83v-117zM358 1638h150l86 -233h-150z" />
<glyph unicode="&#xe9;" horiz-adv-x="1030" d="M45 350q0 -72 27.5 -135t76 -111.5t112 -76t134.5 -27.5h236q72 0 135 27.5t111.5 76t76 112t27.5 134.5h-233q0 -47 -35 -82t-82 -35h-236q-47 0 -81.5 35t-34.5 82v119h702v350q0 72 -27.5 135.5t-76 111.5t-112 75.5t-134.5 27.5h-236q-72 0 -135 -27.5t-111.5 -75.5 t-76 -111.5t-27.5 -135.5v-469zM279 702v117q0 49 34.5 83t81.5 34h236q47 0 82 -34t35 -83v-117h-469zM438 1405l86 233h150l-86 -233h-150z" />
<glyph unicode="&#xea;" horiz-adv-x="1040" d="M53 350v469q0 72 28 135.5t76 111.5t111.5 75.5t134.5 27.5h236q72 0 135.5 -27.5t111.5 -75.5t75.5 -111.5t27.5 -135.5v-350h-702v-119q0 -47 34.5 -82t81.5 -35h236q47 0 82 35t35 82h233q0 -72 -27.5 -135t-75.5 -111.5t-111.5 -76t-135.5 -27.5h-236 q-72 0 -135 27.5t-111 76t-76 112t-28 134.5zM270 1405l197 233h108l197 -233h-184l-66 80l-67 -80h-185zM287 702h469v117q0 49 -35 83t-82 34h-236q-47 0 -81.5 -34t-34.5 -83v-117z" />
<glyph unicode="&#xeb;" horiz-adv-x="1069" d="M68 350q0 -72 27.5 -135t75.5 -111.5t111.5 -76t135.5 -27.5h235q72 0 135.5 27.5t111.5 76t76 112t28 134.5h-234q0 -47 -35 -82t-82 -35h-235q-47 0 -82 35t-35 82v119h703v350q0 72 -28 135.5t-76 111.5t-111.5 75.5t-135.5 27.5h-235q-72 0 -135.5 -27.5 t-111.5 -75.5t-75.5 -111.5t-27.5 -135.5v-469zM184 1405v233h234v-233h-234zM301 702v117q0 49 35 83t82 34h235q47 0 82 -34t35 -83v-117h-469zM653 1405v233h234v-233h-234z" />
<glyph unicode="&#xec;" horiz-adv-x="389" d="M45 1638h150l86 -233h-150zM86 0v1169h233v-1169h-233z" />
<glyph unicode="&#xed;" horiz-adv-x="389" d="M63 0v1169h234v-1169h-234zM109 1405l86 233h102l-39 -233h-149z" />
<glyph unicode="&#xee;" horiz-adv-x="550" d="M27 1405l196 233h164l139 -233h-182l-68 80l-65 -80h-184zM154 0v1169h233v-1169h-233z" />
<glyph unicode="&#xef;" horiz-adv-x="774" d="M35 1405v233h233v-233h-233zM268 0v1169h234v-1169h-234zM502 1405v233h235v-233h-235z" />
<glyph unicode="&#xf1;" horiz-adv-x="1087" d="M78 0v1169h233v-53q53 53 117 53h236q72 0 135 -27.5t111 -75.5t76 -111.5t28 -135.5v-819h-234v819q0 49 -34.5 83t-81.5 34h-236q-47 0 -82 -34t-35 -83v-819h-233zM98 1485q102 158 293 157q100 0 191 -55q53 -35 112 -35q115 0 176 97l117 -76q-102 -160 -293 -160 q-102 0 -190 57q-51 33 -113 33q-115 0 -176 -96z" />
<glyph unicode="&#xf2;" horiz-adv-x="1034" d="M51 350v469q0 72 27.5 135.5t76 111.5t112 75.5t134.5 27.5h236q72 0 135.5 -27.5t111.5 -75.5t75.5 -111.5t27.5 -135.5v-469q0 -72 -27.5 -135t-75.5 -111.5t-111.5 -76t-135.5 -27.5h-236q-72 0 -135 27.5t-111.5 76t-76 112t-27.5 134.5zM285 350q0 -47 34.5 -82 t81.5 -35h236q47 0 82 35t35 82v469q0 49 -35 83t-82 34h-236q-47 0 -81.5 -34t-34.5 -83v-469zM358 1638h150l86 -233h-150z" />
<glyph unicode="&#xf3;" horiz-adv-x="1032" d="M45 350q0 -72 27.5 -135t76 -111.5t112 -76t134.5 -27.5h236q72 0 135 27.5t111.5 76t76 112t27.5 134.5v469q0 72 -27.5 135.5t-76 111.5t-112 75.5t-134.5 27.5h-236q-72 0 -135 -27.5t-111.5 -75.5t-76 -111.5t-27.5 -135.5v-469zM279 350v469q0 49 34.5 83t81.5 34 h236q47 0 82 -34t35 -83v-469q0 -47 -35 -82t-82 -35h-236q-47 0 -81.5 35t-34.5 82zM438 1405l86 233h150l-86 -233h-150z" />
<glyph unicode="&#xf4;" horiz-adv-x="1044" d="M53 350v469q0 72 28 135.5t76 111.5t111.5 75.5t134.5 27.5h236q72 0 135.5 -27.5t111.5 -75.5t75.5 -111.5t27.5 -135.5v-469q0 -72 -27.5 -135t-75.5 -111.5t-111.5 -76t-135.5 -27.5h-236q-72 0 -135 27.5t-111 76t-76 112t-28 134.5zM270 1405l197 233h108l197 -233 h-184l-66 80l-67 -80h-185zM287 350q0 -47 34.5 -82t81.5 -35h236q47 0 82 35t35 82v469q0 49 -35 83t-82 34h-236q-47 0 -81.5 -34t-34.5 -83v-469z" />
<glyph unicode="&#xf5;" horiz-adv-x="1075" d="M70 350v469q0 72 27.5 135.5t75.5 111.5t111.5 75.5t135.5 27.5h235q72 0 135.5 -27.5t111.5 -75.5t76 -111.5t28 -135.5v-469q0 -72 -28 -135t-76 -111.5t-111.5 -76t-135.5 -27.5h-235q-72 0 -135.5 27.5t-111.5 76t-75.5 112t-27.5 134.5zM90 1485q102 158 293 157 q100 0 190 -55q53 -35 113 -35q115 0 176 97l117 -76q-102 -160 -293 -160q-102 0 -190 57q-51 33 -113 33q-115 0 -176 -96zM303 350q0 -47 35 -82t82 -35h235q47 0 82 35t35 82v469q0 49 -35 83t-82 34h-235q-47 0 -82 -34t-35 -83v-469z" />
<glyph unicode="&#xf6;" horiz-adv-x="1073" d="M68 350q0 -72 27.5 -135t75.5 -111.5t111.5 -76t135.5 -27.5h235q72 0 135.5 27.5t111.5 76t76 112t28 134.5v469q0 72 -28 135.5t-76 111.5t-111.5 75.5t-135.5 27.5h-235q-72 0 -135.5 -27.5t-111.5 -75.5t-75.5 -111.5t-27.5 -135.5v-469zM184 1405v233h234v-233h-234 zM301 350v469q0 49 35 83t82 34h235q47 0 82 -34t35 -83v-469q0 -47 -35 -82t-82 -35h-235q-47 0 -82 35t-35 82zM653 1405v233h234v-233h-234z" />
<glyph unicode="&#xf7;" horiz-adv-x="1202" d="M16 469v233h1170v-233h-1170zM485 0v233h234v-233h-234zM485 936v233h234v-233h-234z" />
<glyph unicode="&#xf8;" horiz-adv-x="1044" d="M53 350v469q0 72 28 135.5t76 111.5t111.5 75.5t134.5 27.5h207l84 236h250l-108 -297q154 -104 153 -289v-469q0 -72 -27.5 -135t-75.5 -111.5t-111.5 -76t-135.5 -27.5h-207l-84 -233h-250l109 294q-154 104 -154 289zM287 350q0 -25 8 -43l229 629h-121 q-47 0 -81.5 -34t-34.5 -83v-469zM518 233h121q47 0 82 35t35 82v469q0 25 -8 43z" />
<glyph unicode="&#xf9;" horiz-adv-x="1046" d="M55 350v819h234v-819q0 -47 34.5 -82t82.5 -35h235q47 0 82 35t35 82v819h233v-1169h-233v53q-54 -53 -117 -53h-235q-72 0 -135.5 27.5t-111.5 76t-76 112t-28 134.5zM362 1638h150l86 -233h-149z" />
<glyph unicode="&#xfa;" horiz-adv-x="1046" d="M49 350v819h234v-819q0 -47 34.5 -82t81.5 -35h236q47 0 82 35t35 82v819h233v-1169h-233v53q-54 -53 -117 -53h-236q-72 0 -135 27.5t-111.5 76t-76 112t-27.5 134.5zM442 1405l86 233h150l-86 -233h-150z" />
<glyph unicode="&#xfb;" horiz-adv-x="1056" d="M57 350v819h234v-819q0 -47 34.5 -82t82.5 -35h235q47 0 82 35t35 82v819h233v-1169h-233v53q-54 -53 -117 -53h-235q-72 0 -135.5 27.5t-111.5 76t-76 112t-28 134.5zM274 1405l197 233h109l196 -233h-184l-66 80l-67 -80h-185z" />
<glyph unicode="&#xfc;" horiz-adv-x="1085" d="M72 350v819h233v-819q0 -47 35 -82t82 -35h235q47 0 82 35t35 82v819h234v-1169h-234v53q-54 -53 -117 -53h-235q-72 0 -135.5 27.5t-111.5 76t-75.5 112t-27.5 134.5zM188 1405v233h234v-233h-234zM657 1405v233h234v-233h-234z" />
<glyph unicode="&#xfd;" horiz-adv-x="1138" d="M20 1169h250l301 -827l301 827h250l-598 -1638h-248l170 469zM496 1405l86 233h149l-86 -233h-149z" />
<glyph unicode="&#x2000;" horiz-adv-x="1131" />
<glyph unicode="&#x2001;" horiz-adv-x="2263" />
<glyph unicode="&#x2002;" horiz-adv-x="1131" />
<glyph unicode="&#x2003;" horiz-adv-x="2263" />
<glyph unicode="&#x2004;" horiz-adv-x="754" />
<glyph unicode="&#x2005;" horiz-adv-x="565" />
<glyph unicode="&#x2006;" horiz-adv-x="377" />
<glyph unicode="&#x2007;" horiz-adv-x="377" />
<glyph unicode="&#x2008;" horiz-adv-x="282" />
<glyph unicode="&#x2009;" horiz-adv-x="452" />
<glyph unicode="&#x200a;" horiz-adv-x="125" />
<glyph unicode="&#x2010;" d="M86 469v233h936v-233h-936z" />
<glyph unicode="&#x2011;" d="M86 469v233h936v-233h-936z" />
<glyph unicode="&#x2012;" d="M86 469v233h936v-233h-936z" />
<glyph unicode="&#x2013;" horiz-adv-x="1118" d="M90 469v233h936v-233h-936z" />
<glyph unicode="&#x2014;" horiz-adv-x="1585" d="M90 469v233h1405v-233h-1405z" />
<glyph unicode="&#x2018;" horiz-adv-x="389" d="M66 1171v234l84 233h149l-84 -233h84v-234h-233z" />
<glyph unicode="&#x2019;" horiz-adv-x="385" d="M84 1171l84 234h-84v233h233v-233l-84 -234h-149z" />
<glyph unicode="&#x201a;" horiz-adv-x="385" d="M84 0v233h233v-233l-84 -233h-149l84 233h-84z" />
<glyph unicode="&#x201c;" horiz-adv-x="778" d="M80 1171v234l84 233h149l-84 -233h84v-234h-233zM455 1171v234l84 233h149l-84 -233h84v-234h-233z" />
<glyph unicode="&#x201d;" horiz-adv-x="778" d="M88 1171l84 234h-84v233h234v-233l-84 -234h-150zM463 1171l84 234h-84v233h233v-233l-84 -234h-149z" />
<glyph unicode="&#x201e;" horiz-adv-x="778" d="M88 0v233h234v-233l-84 -233h-150l84 233h-84zM463 0v233h233v-233l-84 -233h-149l84 233h-84z" />
<glyph unicode="&#x2022;" horiz-adv-x="419" d="M90 702v234h234v-234h-234z" />
<glyph unicode="&#x2026;" horiz-adv-x="1351" d="M90 0v233h234v-233h-234zM559 0v233h234v-233h-234zM1026 0v233h234v-233h-234z" />
<glyph unicode="&#x202f;" horiz-adv-x="452" />
<glyph unicode="&#x2039;" horiz-adv-x="583" d="M35 586l203 350h270l-203 -350l203 -353h-270z" />
<glyph unicode="&#x203a;" horiz-adv-x="581" d="M72 233l202 353l-202 350h270l203 -350l-203 -353h-270z" />
<glyph unicode="&#x205f;" horiz-adv-x="565" />
<glyph unicode="&#x20ac;" horiz-adv-x="1310" d="M78 469v700q0 96 37 181.5t100.5 150t149.5 101t182 36.5h233q96 0 181.5 -36.5t149 -101t100 -149.5t36.5 -182h-233q0 49 -18.5 91.5t-51.5 75t-75 51t-89 18.5h-233q-49 0 -92 -18.5t-75 -50t-50.5 -74.5t-18.5 -93h469v-233h-469v-234h469v-233h-469q0 -49 18.5 -92 t50.5 -75t75 -50.5t92 -18.5h233q49 0 91 18.5t74 51.5t50.5 76t18.5 90h233q0 -96 -36.5 -181t-100 -149.5t-148.5 -101.5t-182 -37h-233q-96 0 -182 37t-149.5 100.5t-100.5 149.5t-37 182z" />
<glyph unicode="&#x2122;" horiz-adv-x="1482" d="M66 1497v141h561v-141h-211v-561h-140v561h-210zM768 936v702h139l172 -473l172 473h142v-702h-142v293l-104 -293h-133l-107 293v-293h-139z" />
<glyph unicode="&#xe000;" horiz-adv-x="1167" d="M0 0v1167h1167v-1167h-1167z" />
</font>
</defs>
</svg>
