<?xml version="1.0" standalone="no"?>
<!DOCTYPE svg PUBLIC "-//W3C//DTD SVG 1.1//EN" "http://www.w3.org/Graphics/SVG/1.1/DTD/svg11.dtd" >
<svg xmlns="http://www.w3.org/2000/svg">
<metadata></metadata>
<defs>
<font id="newmediaregular" horiz-adv-x="243" >
<font-face units-per-em="2048" ascent="1638" descent="-410" />
<missing-glyph horiz-adv-x="473" />
<glyph horiz-adv-x="2048" />
<glyph horiz-adv-x="2048" />
<glyph unicode="&#xd;" horiz-adv-x="473" />
<glyph unicode=" "  horiz-adv-x="473" />
<glyph unicode="&#x09;" horiz-adv-x="473" />
<glyph unicode="&#xa0;" horiz-adv-x="473" />
<glyph unicode="!" horiz-adv-x="219" d="M63 0v78h78v-78h-78zM63 233v1405h78v-1405h-78z" />
<glyph unicode="&#x22;" horiz-adv-x="389" d="M76 1249v389h78v-389h-78zM231 1249v389h78v-389h-78z" />
<glyph unicode="#" horiz-adv-x="845" d="M33 389v80h194v233h-194v78h194v195h78v-195h236v195h77v-195h195v-78h-195v-233h195v-80h-195v-194h-77v194h-236v-194h-78v194h-194zM305 469h236v233h-236v-233z" />
<glyph unicode="$" horiz-adv-x="1087" d="M37 430h78q0 -72 27.5 -136.5t75.5 -112.5t112.5 -75.5t136.5 -27.5h39v702h-39q-90 0 -168 34t-136.5 92.5t-92 136t-33.5 165.5t33.5 167t92 137.5t136.5 92t168 33.5h39v156h78v-156h39q86 0 163.5 -34.5t136 -93t93.5 -136.5t35 -166h-78q0 72 -27.5 136.5t-76 112.5 t-112 76t-134.5 28h-39v-703h39q86 0 163.5 -35t136 -93t93.5 -136t35 -164q0 -90 -34 -168t-92.5 -136t-136 -92t-165.5 -34h-39v-156h-78v156h-39q-90 0 -168 34t-136.5 92t-92 136t-33.5 168zM115 1208q0 -72 27.5 -136t75.5 -111.5t112.5 -75t136.5 -27.5h39v703h-39 q-72 0 -135.5 -28t-111.5 -76t-76.5 -111.5t-28.5 -137.5zM584 78h39q74 0 137 27.5t110.5 75.5t75 112.5t27.5 136.5t-27.5 135.5t-76 111.5t-112 75.5t-134.5 27.5h-39v-702z" />
<glyph unicode="%" horiz-adv-x="1697" d="M41 1174v153q0 63 24.5 120.5t67.5 99.5t99.5 66.5t119.5 24.5h154q63 0 119.5 -24.5t99.5 -67.5t67.5 -99t24.5 -120v-153q0 -63 -24.5 -120t-66.5 -100t-99.5 -67.5t-120.5 -24.5h-154q-66 0 -122 24.5t-98 66.5t-66.5 98.5t-24.5 122.5zM119 1174q0 -49 18.5 -91.5 t50 -74t73.5 -50t91 -18.5h154q47 0 90 18.5t74.5 50t50 75t18.5 90.5v153q0 47 -18.5 89t-51 75t-74.5 51.5t-89 18.5h-154q-47 0 -90 -18.5t-74.5 -50.5t-50 -75t-18.5 -90v-153zM510 0l592 1630h84l-594 -1630h-82zM879 311v154q0 63 24.5 119.5t66.5 99.5t98 67.5 t120 24.5h155q63 0 120 -24.5t100 -67.5t67.5 -99.5t24.5 -119.5v-154q0 -63 -24.5 -119.5t-66.5 -99.5t-99.5 -67.5t-121.5 -24.5h-155q-66 0 -122 24.5t-97 67.5t-65.5 99.5t-24.5 119.5zM954 311q0 -49 18.5 -91t50.5 -73.5t74 -50t91 -18.5h155q47 0 90.5 18.5t75 50 t50 74.5t18.5 90v154q0 47 -18.5 89t-51 75t-74.5 51t-90 18h-155q-47 0 -90 -18t-75 -50t-50.5 -75t-18.5 -90v-154z" />
<glyph unicode="&#x26;" horiz-adv-x="1132" d="M59 430q0 129 69 233.5t181 155.5q-113 51 -181.5 155.5t-68.5 233.5q0 88 34 167t92.5 137.5t136 92t167.5 33.5h156q86 0 164 -34.5t136.5 -93t93 -136.5t34.5 -166h-78q0 72 -27.5 136.5t-75.5 112.5t-111.5 76t-135.5 28h-156q-72 0 -135 -28t-111 -76t-77 -111.5 t-29 -137.5q0 -72 28 -136t76 -111.5t112.5 -75t135.5 -27.5v-78q-72 0 -135 -27.5t-111 -75.5t-77 -111.5t-29 -135.5t28 -136.5t76 -112.5t112.5 -75.5t135.5 -27.5h156q74 0 137.5 27.5t110.5 75.5t74.5 112.5t27.5 136.5v350h-155v78h233v-428q0 -90 -33.5 -168 t-92 -136t-136.5 -92t-166 -34h-156q-90 0 -167.5 34t-136 92t-92.5 136t-34 168z" />
<glyph unicode="'" d="M76 1249v389h78v-389h-78z" />
<glyph unicode="(" horiz-adv-x="385" d="M68 -156v1483q0 63 24.5 120.5t67.5 99.5t99 66.5t120 24.5v-77q-47 0 -90 -18.5t-75 -50.5t-50.5 -75t-18.5 -90v-1483q0 -47 18.5 -90t50.5 -74.5t75 -50t90 -18.5v-80q-63 0 -119.5 24.5t-99.5 67.5t-67.5 99.5t-24.5 121.5z" />
<glyph unicode=")" horiz-adv-x="385" d="M4 -389q47 0 89 18.5t75 51t51.5 74.5t18.5 89v1483q0 47 -18.5 89t-51.5 75t-75 51.5t-89 18.5v77q63 0 119.5 -24.5t99.5 -67.5t67.5 -99t24.5 -120v-1483q0 -66 -24.5 -122t-67.5 -99t-99 -67.5t-120 -24.5v80z" />
<glyph unicode="*" horiz-adv-x="833" d="M27 547v78h295l-209 209l55 55l209 -209v295h80v-295l209 209l55 -55l-211 -209h297v-78h-297l211 -211l-55 -53l-209 209v-297h-80v297l-209 -209l-55 53l209 211h-295z" />
<glyph unicode="+" horiz-adv-x="792" d="M6 547v78h350v350h80v-350h350v-78h-350v-352h-80v352h-350z" />
<glyph unicode="," horiz-adv-x="192" d="M43 -156l57 156h-28v78h78v-78l-56 -156h-51z" />
<glyph unicode="-" horiz-adv-x="778" d="M76 547v78h624v-78h-624z" />
<glyph unicode="." d="M76 0v78h78v-78h-78z" />
<glyph unicode="/" horiz-adv-x="688" d="M4 0l596 1638h84l-596 -1638h-84z" />
<glyph unicode="0" horiz-adv-x="1146" d="M66 430v778q0 88 33.5 167t92 137.5t136.5 92t168 33.5h155q86 0 164 -34.5t136.5 -93t93 -136.5t34.5 -166v-778q0 -90 -33.5 -168t-92 -136t-136.5 -92t-166 -34h-155q-90 0 -168 34t-136.5 92t-92 136t-33.5 168zM143 430q0 -72 28 -136.5t76 -112.5t112.5 -75.5 t136.5 -27.5h155q74 0 137.5 27.5t110.5 75.5t74.5 112.5t27.5 136.5v778q0 72 -27.5 136.5t-75.5 112.5t-111.5 76t-135.5 28h-155q-72 0 -135.5 -28t-111.5 -76t-77 -111.5t-29 -137.5v-778z" />
<glyph unicode="1" horiz-adv-x="391" d="M0 1239v121l233 278h78v-1638h-78v1518z" />
<glyph unicode="2" horiz-adv-x="1097" d="M63 0v430q0 88 34 166t92.5 136.5t136 92t168.5 33.5h155q72 0 135.5 27.5t111.5 76t75.5 112t27.5 134.5q0 72 -27.5 136.5t-75.5 112.5t-111.5 76t-135.5 28h-155q-72 0 -135.5 -28t-111.5 -76t-77 -111.5t-29 -137.5h-78q0 88 34 167t92.5 137.5t136 92t168.5 33.5 h155q86 0 164 -34.5t136.5 -93t93 -136.5t34.5 -166t-33.5 -165.5t-92 -136t-136.5 -92.5t-166 -34h-155q-72 0 -135.5 -27.5t-111.5 -75.5t-77 -111.5t-29 -135.5v-352h936v-78h-1014z" />
<glyph unicode="3" horiz-adv-x="1124" d="M51 430h78q0 -72 27.5 -136.5t76 -112.5t113 -75.5t135.5 -27.5h156q74 0 137.5 27.5t110.5 75.5t74.5 112.5t27.5 136.5t-27.5 135.5t-75.5 111.5t-111.5 75.5t-135.5 27.5h-156v78h156q72 0 135.5 27.5t111.5 76t75.5 112t27.5 134.5q0 72 -27.5 136.5t-75.5 112.5 t-111.5 76t-135.5 28h-156q-72 0 -135 -28t-111.5 -76t-77 -111.5t-28.5 -137.5h-78q0 88 34 167t92.5 137.5t136 92t167.5 33.5h156q86 0 164 -34.5t136 -93t93 -136.5t35 -166q0 -129 -68.5 -233.5t-181.5 -155.5q113 -51 181.5 -155.5t68.5 -233.5q0 -90 -34 -168 t-92 -136t-136 -92t-166 -34h-156q-90 0 -167.5 34t-136 92t-92.5 136t-34 168z" />
<glyph unicode="4" horiz-adv-x="1040" d="M12 547v78l369 1013h84l-369 -1013h621v544h78v-544h231v-78h-231v-547h-78v547h-705z" />
<glyph unicode="5" horiz-adv-x="1112" d="M68 430h77q0 -72 28 -136.5t76 -112.5t112.5 -75.5t136.5 -27.5h155q74 0 137.5 27.5t110.5 75.5t75 112.5t28 136.5v234q0 72 -28 135t-76 111t-111.5 76t-135.5 28h-155q-72 0 -136.5 -28t-112.5 -75t-76 -110.5t-28 -136.5h-77v974h1013v-77h-936v-652 q129 182 353 183h155q86 0 164 -35t136.5 -93.5t93 -136t34.5 -163.5v-234q0 -90 -33.5 -168t-92 -136t-136.5 -92t-166 -34h-155q-90 0 -168 34t-136.5 92t-92 136t-33.5 168z" />
<glyph unicode="6" horiz-adv-x="1134" d="M66 430v778q0 88 33.5 167t92 137.5t136.5 92t168 33.5h155q86 0 164 -34.5t136.5 -93t93 -136.5t34.5 -166h-78q0 72 -27.5 136.5t-75.5 112.5t-111.5 76t-135.5 28h-155q-72 0 -135.5 -28t-111.5 -76t-77 -111.5t-29 -137.5v-532q129 182 353 182h155q86 0 164 -35 t136.5 -93t93 -136t34.5 -164q0 -90 -33.5 -168t-92 -136t-136.5 -92t-166 -34h-155q-90 0 -168 34t-136.5 92t-92 136t-33.5 168zM143 430q0 -72 28 -136.5t76 -112.5t112.5 -75.5t136.5 -27.5h155q74 0 137.5 27.5t110.5 75.5t74.5 112.5t27.5 136.5t-27.5 135.5 t-75.5 111.5t-111.5 75.5t-135.5 27.5h-155q-72 0 -135.5 -27.5t-111.5 -75.5t-77 -111.5t-29 -135.5z" />
<glyph unicode="7" horiz-adv-x="1034" d="M14 1561v77h1014v-77l-901 -1561h-90l901 1561h-924z" />
<glyph unicode="8" horiz-adv-x="1132" d="M59 430q0 129 69 233.5t181 155.5q-113 51 -181.5 155.5t-68.5 233.5q0 88 34 167t92.5 137.5t136 92t167.5 33.5h156q86 0 164 -34.5t136.5 -93t93 -136.5t34.5 -166q0 -129 -68.5 -233.5t-181.5 -155.5q113 -51 181.5 -155.5t68.5 -233.5q0 -90 -33.5 -168t-92 -136 t-136.5 -92t-166 -34h-156q-90 0 -167.5 34t-136 92t-92.5 136t-34 168zM137 430q0 -72 28 -136.5t76 -112.5t112.5 -75.5t135.5 -27.5h156q74 0 137.5 27.5t110.5 75.5t74.5 112.5t27.5 136.5t-27.5 135.5t-75.5 111.5t-111.5 75.5t-135.5 27.5h-158q-72 0 -135 -27.5 t-110 -75.5t-76 -111.5t-29 -135.5zM137 1208q0 -72 28 -135t76 -111.5t111 -76t135 -27.5h158q72 0 135.5 27.5t111.5 76t75.5 112t27.5 134.5q0 72 -27.5 136.5t-75.5 112.5t-111.5 76t-135.5 28h-156q-72 0 -135 -28t-111 -76t-77 -111.5t-29 -137.5z" />
<glyph unicode="9" horiz-adv-x="1136" d="M55 430h78q0 -72 27.5 -136.5t76 -112.5t113 -75.5t135.5 -27.5h156q74 0 137.5 27.5t110.5 75.5t74.5 112.5t27.5 136.5v533q-129 -182 -350 -183h-156q-90 0 -167.5 34t-136 92.5t-92.5 136t-34 165.5t34 167t92.5 137.5t136 92t167.5 33.5h156q86 0 164 -34.5t136 -93 t93 -136.5t35 -166v-778q0 -90 -34 -168t-92 -136t-136 -92t-166 -34h-156q-90 0 -167.5 34t-136 92t-92.5 136t-34 168zM133 1208q0 -72 27.5 -136t76 -111.5t113 -75t135.5 -27.5h156q72 0 135.5 28.5t111.5 76t75.5 111t27.5 134.5q0 72 -27.5 136.5t-75.5 112.5 t-111.5 76t-135.5 28h-156q-72 0 -135 -28t-111.5 -76t-77 -111.5t-28.5 -137.5z" />
<glyph unicode=":" horiz-adv-x="86" d="M2 0v78h78v-78h-78zM2 1092v77h78v-77h-78z" />
<glyph unicode=";" horiz-adv-x="172" d="M23 -156l57 156h-29v78h78v-78l-55 -156h-51zM51 391v78h78v-78h-78z" />
<glyph unicode="&#x3c;" horiz-adv-x="679" d="M43 586l492 583h100l-490 -583l490 -586h-100z" />
<glyph unicode="=" horiz-adv-x="872" d="M76 389v80h780v-80h-780zM76 702v78h780v-78h-780z" />
<glyph unicode="&#x3e;" horiz-adv-x="677" d="M43 0l492 586l-492 583h102l490 -583l-490 -586h-102z" />
<glyph unicode="?" horiz-adv-x="1040" d="M10 1208q0 88 34 167t92.5 137.5t136 92t167.5 33.5h156q86 0 164 -34.5t136 -93t93 -136.5t35 -166t-34 -165.5t-92 -136t-136 -92.5t-166 -34h-78v-547h-78v625h156q72 0 135.5 27.5t111.5 76t75.5 112t27.5 134.5q0 72 -27.5 136.5t-75.5 112.5t-111.5 76t-135.5 28 h-156q-72 0 -135 -28t-111.5 -76t-77 -111.5t-28.5 -137.5h-78zM440 0v78h78v-78h-78z" />
<glyph unicode="@" horiz-adv-x="2220" d="M72 -39v1247q0 88 33.5 167t92 137.5t136.5 92t168 33.5h1247q88 0 166 -34.5t136 -93t93 -136.5t35 -166v-778q0 -90 -34 -168t-92 -136t-137 -92t-167 -34q-184 0 -272 162q-88 -162 -275 -162h-155q-66 0 -122.5 24.5t-98.5 66.5t-66.5 98.5t-24.5 121.5 q0 63 24.5 120.5t67.5 100.5t99.5 68t120.5 25h391v233q0 47 -19.5 90t-51.5 75t-75 50.5t-90 18.5h-155q-47 0 -90.5 -18.5t-75 -50.5t-50 -75t-18.5 -90h-78q0 63 24.5 120.5t67.5 99.5t99.5 66.5t120.5 24.5h155q63 0 120.5 -24.5t100.5 -67.5t68 -99t25 -120v-547 q0 -49 18 -91t50 -73.5t74 -50t91 -18.5q74 0 137.5 27.5t110.5 75.5t74.5 112.5t27.5 136.5v778q0 72 -27.5 136.5t-75.5 112.5t-111.5 76t-135.5 28h-1247q-72 0 -135.5 -28t-111.5 -76t-76.5 -111.5t-28.5 -137.5v-1247q0 -74 27.5 -137.5t75.5 -110.5t112.5 -74.5 t136.5 -27.5h1247v-80h-1247q-90 0 -168 34t-136.5 92t-92 136t-33.5 168zM813 311q0 -49 18.5 -91t50 -73.5t73.5 -50t92 -18.5h155q49 0 92 18.5t75 51t50.5 74.5t18.5 89v236h-391q-47 0 -89.5 -18.5t-75 -50.5t-51 -75t-18.5 -92z" />
<glyph unicode="A" horiz-adv-x="1318" d="M27 0l596 1638h73l596 -1638h-82l-198 547h-703l-198 -547h-84zM336 625h647l-324 886z" />
<glyph unicode="B" horiz-adv-x="1148" d="M76 0v1638h586q86 0 163.5 -34.5t136 -93t93.5 -136.5t35 -166q0 -129 -69 -233.5t-181 -155.5q113 -51 181.5 -155.5t68.5 -233.5q0 -90 -34 -168t-92.5 -136t-136 -92t-165.5 -34h-586zM154 78h508q74 0 137 27.5t110 75.5t75 112.5t28 136.5t-28 135.5t-76 111.5 t-111.5 75.5t-134.5 27.5h-508v-702zM154 858h508q72 0 135 27.5t111 76t76 112t28 134.5q0 72 -28 136.5t-76 112.5t-111.5 76t-134.5 28h-508v-703z" />
<glyph unicode="C" horiz-adv-x="1130" d="M66 430v778q0 88 33.5 167t92 137.5t136.5 92t168 33.5h155q86 0 164 -34.5t136.5 -93t93 -136.5t34.5 -166h-78q0 72 -27.5 136.5t-75.5 112.5t-111.5 76t-135.5 28h-155q-72 0 -135.5 -28t-111.5 -76t-77 -111.5t-29 -137.5v-778q0 -72 28 -136.5t76 -112.5 t112.5 -75.5t136.5 -27.5h155q74 0 137.5 27.5t110.5 75.5t74.5 112.5t27.5 136.5h78q0 -90 -33.5 -168t-92 -136t-136.5 -92t-166 -34h-155q-90 0 -168 34t-136.5 92t-92 136t-33.5 168z" />
<glyph unicode="D" horiz-adv-x="1157" d="M76 0v1638h586q86 0 163.5 -34.5t136 -93t93.5 -136.5t35 -166v-778q0 -90 -34 -168t-92.5 -136t-136 -92t-165.5 -34h-586zM154 78h508q74 0 137 27.5t110 75.5t75 112.5t28 136.5v778q0 72 -28 136.5t-76 112.5t-111.5 76t-134.5 28h-508v-1483z" />
<glyph unicode="E" horiz-adv-x="1089" d="M76 0v1638h1014v-77h-936v-703h702v-78h-702v-702h936v-78h-1014z" />
<glyph unicode="F" horiz-adv-x="1089" d="M76 0v1638h1014v-77h-936v-703h702v-78h-702v-780h-78z" />
<glyph unicode="G" horiz-adv-x="1138" d="M66 430v778q0 88 33.5 167t92 137.5t136.5 92t168 33.5h155q86 0 164 -34.5t136.5 -93t93 -136.5t34.5 -166h-78q0 72 -27.5 136.5t-75.5 112.5t-111.5 76t-135.5 28h-155q-72 0 -135.5 -28t-111.5 -76t-77 -111.5t-29 -137.5v-778q0 -72 28 -136.5t76 -112.5 t112.5 -75.5t136.5 -27.5h155q74 0 137.5 27.5t110.5 75.5t74.5 112.5t27.5 136.5v350h-155v78h233v-428q0 -90 -33.5 -168t-92 -136t-136.5 -92t-166 -34h-155q-90 0 -168 34t-136.5 92t-92 136t-33.5 168z" />
<glyph unicode="H" horiz-adv-x="1167" d="M76 0v1638h78v-780h858v780h78v-1638h-78v780h-858v-780h-78z" />
<glyph unicode="I" d="M76 0v1638h78v-1638h-78z" />
<glyph unicode="J" horiz-adv-x="931" d="M2 430h78q0 -72 27.5 -136.5t75.5 -112.5t112.5 -75.5t136.5 -27.5t135.5 28.5t111.5 76.5t75.5 111.5t27.5 135.5v1208h78v-1208q0 -90 -33.5 -168t-92 -136t-136.5 -92t-166 -34q-90 0 -168 34t-136 92t-92 136t-34 168z" />
<glyph unicode="K" horiz-adv-x="940" d="M76 0v1638h78v-757l637 757h102l-688 -819l688 -819h-102l-637 758v-758h-78z" />
<glyph unicode="L" horiz-adv-x="856" d="M76 0v1638h78v-1560h702v-78h-780z" />
<glyph unicode="M" horiz-adv-x="1406" d="M76 0v1638h78l551 -1511l548 1511h78v-1638h-78v1411l-512 -1411h-73l-514 1411v-1411h-78z" />
<glyph unicode="N" horiz-adv-x="1165" d="M76 0v1638h78l856 -1482v1482h77v-1638h-77l-856 1483v-1483h-78z" />
<glyph unicode="O" horiz-adv-x="1146" d="M66 430v778q0 88 33.5 167t92 137.5t136.5 92t168 33.5h155q86 0 164 -34.5t136.5 -93t93 -136.5t34.5 -166v-778q0 -90 -33.5 -168t-92 -136t-136.5 -92t-166 -34h-155q-90 0 -168 34t-136.5 92t-92 136t-33.5 168zM143 430q0 -72 28 -136.5t76 -112.5t112.5 -75.5 t136.5 -27.5h155q74 0 137.5 27.5t110.5 75.5t74.5 112.5t27.5 136.5v778q0 72 -27.5 136.5t-75.5 112.5t-111.5 76t-135.5 28h-155q-72 0 -135.5 -28t-111.5 -76t-77 -111.5t-29 -137.5v-778z" />
<glyph unicode="P" horiz-adv-x="1095" d="M76 0v1638h586q86 0 163.5 -34.5t136 -93t93.5 -136.5t35 -166t-34 -165.5t-92.5 -136t-136 -92.5t-165.5 -34h-508v-780h-78zM154 858h508q72 0 135 27.5t111 76t76 112t28 134.5q0 72 -28 136.5t-76 112.5t-111.5 76t-134.5 28h-508v-703z" />
<glyph unicode="Q" horiz-adv-x="1212" d="M68 430v778q0 88 33.5 167t92 137.5t136.5 92t168 33.5h155q86 0 164 -34.5t136.5 -93t93 -136.5t34.5 -166v-778q0 -139 -75 -246l153 -184h-100l-105 125q-125 -125 -301 -125h-155q-90 0 -168 34t-136.5 92t-92 136t-33.5 168zM145 430q0 -72 28 -136.5t76 -112.5 t112.5 -75.5t136.5 -27.5h155q150 0 250 106l-139 166h102l86 -102q51 82 52 182v778q0 72 -28 136.5t-76 112.5t-111.5 76t-135.5 28h-155q-72 0 -135.5 -28t-111.5 -76t-77 -111.5t-29 -137.5v-778z" />
<glyph unicode="R" horiz-adv-x="1150" d="M76 0v1638h586q86 0 163.5 -34.5t136 -93t93.5 -136.5t35 -166q0 -68 -21.5 -132t-60.5 -117.5t-92.5 -94.5t-116.5 -61l291 -803h-82l-287 784q-14 -2 -28.5 -3t-30.5 -1h-508v-780h-78zM154 858h508q72 0 135 27.5t111 76t76 111.5t28 135t-28 136.5t-76 112.5 t-111.5 76t-134.5 28h-508v-703z" />
<glyph unicode="S" horiz-adv-x="1124" d="M55 428h78q0 -72 27.5 -136.5t76 -111.5t113 -74.5t135.5 -27.5h156q72 0 135.5 27.5t111.5 75.5t75.5 111.5t27.5 135.5t-27.5 136.5t-75.5 112.5t-111.5 75.5t-135.5 27.5h-156q-90 0 -167.5 34t-136 92.5t-92.5 136t-34 165.5t34 167t92.5 137.5t136 92t167.5 33.5 h156q86 0 164 -34.5t136 -93t93 -136.5t35 -166h-78q0 72 -27.5 136.5t-75.5 112.5t-111.5 76t-135.5 28h-156q-72 0 -135 -28t-111.5 -76t-77 -111.5t-28.5 -137.5q0 -72 27.5 -136t76 -111.5t113 -75t135.5 -27.5h156q86 0 164 -35t136 -93t93 -136t35 -166t-34 -166 t-92 -136t-136 -92t-166 -34h-156q-90 0 -167.5 34t-136 92t-92.5 136t-34 166z" />
<glyph unicode="T" horiz-adv-x="1030" d="M8 1561v77h1014v-77h-467v-1561h-78v1561h-469z" />
<glyph unicode="U" horiz-adv-x="1157" d="M72 430v1208h78v-1208q0 -72 27.5 -136.5t75.5 -112.5t112.5 -75.5t136.5 -27.5h155q74 0 137.5 27.5t110.5 75.5t75 112.5t28 136.5v1208h77v-1208q0 -90 -33.5 -168t-92 -136t-136.5 -92t-166 -34h-155q-90 0 -168 34t-136.5 92t-92 136t-33.5 168z" />
<glyph unicode="V" horiz-adv-x="1318" d="M27 1638h84l548 -1511l551 1511h82l-596 -1638h-73z" />
<glyph unicode="W" horiz-adv-x="2543" d="M47 1638h84l549 -1511l551 1511h82l551 -1511l549 1511h84l-596 -1638h-74l-555 1524l-555 -1524h-74z" />
<glyph unicode="X" horiz-adv-x="1155" d="M59 0l473 819l-473 819h91l428 -741l428 741h90l-473 -819l473 -819h-90l-428 741l-428 -741h-91z" />
<glyph unicode="Y" horiz-adv-x="1077" d="M20 1638h91l428 -741l428 741h90l-479 -829v-809h-78v809z" />
<glyph unicode="Z" horiz-adv-x="1380" d="M16 0v78l1244 1483h-1244v77h1346v-77l-1243 -1483h1243v-78h-1346z" />
<glyph unicode="[" horiz-adv-x="311" d="M76 -469v2107h233v-77h-155v-1950h155v-80h-233z" />
<glyph unicode="\" horiz-adv-x="688" d="M4 1638h84l596 -1638h-84z" />
<glyph unicode="]" horiz-adv-x="315" d="M2 -389h156v1950h-156v77h234v-2107h-234v80z" />
<glyph unicode="^" horiz-adv-x="520" d="M33 1325l196 236h60l196 -236h-102l-123 150l-125 -150h-102z" />
<glyph unicode="_" horiz-adv-x="1167" d="M76 0h1014v-78h-1014v78z" />
<glyph unicode="`" horiz-adv-x="223" d="M23 1561h81l86 -236h-81z" />
<glyph unicode="a" horiz-adv-x="1107" d="M61 311q0 63 25 120.5t68 100.5t99.5 68t119.5 25h391v233q0 47 -18.5 89t-51 75t-74.5 51.5t-90 18.5h-157q-47 0 -90 -18.5t-75 -50.5t-50.5 -75t-18.5 -90h-78q0 63 25 120.5t68 99.5t99 66.5t120 24.5h157q63 0 120 -24.5t100 -67.5t67.5 -99t24.5 -120v-547 q0 -49 18.5 -91t50 -73.5t73.5 -50t91 -18.5v-78q-184 0 -272 162q-88 -162 -273 -162h-157q-66 0 -122 24.5t-98 66.5t-67 98.5t-25 121.5zM139 311q0 -49 18.5 -91t50.5 -73.5t74 -50t91 -18.5h157q47 0 90.5 18.5t75 50t50 74.5t18.5 90v236h-391q-47 0 -89 -18.5 t-75 -50.5t-51.5 -75t-18.5 -92z" />
<glyph unicode="b" horiz-adv-x="878" d="M76 0v1638h78v-573q94 104 233 104h158q63 0 119.5 -24.5t99.5 -67.5t67.5 -99t24.5 -120v-547q0 -63 -24.5 -119.5t-66.5 -99.5t-99.5 -67.5t-120.5 -24.5h-158q-139 0 -233 106v-106h-78zM154 311q0 -49 18 -91t50 -73.5t74 -50t91 -18.5h158q47 0 90 18.5t74.5 50 t50 74.5t18.5 90v547q0 47 -18.5 89t-51 75t-74.5 51.5t-89 18.5h-158q-47 0 -90 -18.5t-75 -50.5t-50 -75t-18 -90v-547z" />
<glyph unicode="c" horiz-adv-x="901" d="M68 311v547q0 63 24.5 120.5t67.5 99.5t99 66.5t120 24.5h158q63 0 119.5 -24.5t99.5 -67.5t67.5 -99t24.5 -120h-78q0 47 -18.5 89t-51 75t-74.5 51.5t-89 18.5h-158q-47 0 -90 -18.5t-75 -50.5t-50.5 -75t-18.5 -90v-547q0 -49 18.5 -91t50.5 -73.5t74 -50t91 -18.5 h158q47 0 90 18.5t74.5 50t50 74.5t18.5 90h78q0 -63 -24.5 -119.5t-66.5 -99.5t-99.5 -67.5t-120.5 -24.5h-158q-66 0 -122 24.5t-98 66.5t-66.5 98.5t-24.5 121.5z" />
<glyph unicode="d" horiz-adv-x="880" d="M23 311v547q0 63 24.5 120.5t67.5 99.5t99 66.5t120 24.5h158q137 0 233 -104v573h78v-1638h-78v106q-94 -106 -233 -106h-158q-66 0 -122 24.5t-98 66.5t-66.5 98.5t-24.5 121.5zM100 311q0 -49 18.5 -91t50.5 -73.5t74 -50t91 -18.5h158q47 0 90 18.5t74.5 50t50 74.5 t18.5 90v547q0 47 -18.5 89t-51 75t-74.5 51.5t-89 18.5h-158q-47 0 -90 -18.5t-75 -50.5t-50.5 -75t-18.5 -90v-547z" />
<glyph unicode="e" horiz-adv-x="909" d="M68 311v547q0 63 24.5 120.5t67.5 99.5t99 66.5t120 24.5h158q61 0 117.5 -24.5t99.5 -66.5t68.5 -99t25.5 -121v-311h-703v-236q0 -49 18.5 -91t50.5 -73.5t74 -50t91 -18.5h158q47 0 90 18.5t74.5 50t50 74.5t18.5 90h78q0 -63 -24.5 -119.5t-67.5 -99.5t-99.5 -67.5 t-119.5 -24.5h-158q-66 0 -122 24.5t-98 66.5t-66.5 98.5t-24.5 121.5zM145 625h625v233q0 47 -18.5 89t-51 75t-74.5 51.5t-89 18.5h-158q-47 0 -90 -18.5t-75 -50.5t-50.5 -75t-18.5 -90v-233z" />
<glyph unicode="f" horiz-adv-x="567" d="M4 1092v77h234v158q0 63 24.5 119.5t67.5 99.5t99 67.5t122 24.5v-77q-47 0 -90 -18.5t-76 -50.5t-51.5 -74t-18.5 -91v-158h236v-77h-236v-1092h-77v1092h-234z" />
<glyph unicode="g" horiz-adv-x="897" d="M43 311v547q0 63 24.5 120.5t67.5 99.5t99.5 66.5t119.5 24.5h158q137 0 233 -104v104h78v-1325q0 -66 -24.5 -122t-67.5 -99t-99.5 -67.5t-119.5 -24.5h-469v80h469q47 0 89 18.5t75 51t51 74.5t18 89v262q-94 -106 -233 -106h-158q-66 0 -122 24.5t-98 66.5t-66.5 98.5 t-24.5 121.5zM121 311q0 -49 18.5 -91t50 -73.5t73.5 -50t91 -18.5h158q47 0 90 18.5t75 50t50 74.5t18 90v547q0 47 -18 89t-51 75t-75 51.5t-89 18.5h-158q-47 0 -90 -18.5t-74.5 -50.5t-50 -75t-18.5 -90v-547z" />
<glyph unicode="h" horiz-adv-x="882" d="M76 0v1638h78v-573q94 104 233 104h158q63 0 119.5 -24.5t99.5 -67.5t67.5 -99t24.5 -120v-858h-78v858q0 47 -18.5 89t-51 75t-74.5 51.5t-89 18.5h-158q-47 0 -90 -18.5t-75 -50.5t-50 -75t-18 -90v-858h-78z" />
<glyph unicode="i" horiz-adv-x="210" d="M59 0v1169h78v-1169h-78zM59 1327v78h78v-78h-78z" />
<glyph unicode="j" horiz-adv-x="374" d="M0 -389q47 0 90 18.5t75 50t50 74.5t18 90v1325h78v-1325q0 -66 -24.5 -122t-67.5 -99t-99.5 -67.5t-119.5 -24.5v80zM233 1327v78h78v-78h-78z" />
<glyph unicode="k" horiz-adv-x="700" d="M76 0v1638h78v-993l440 524h102l-491 -583l491 -586h-102l-440 524v-524h-78z" />
<glyph unicode="l" d="M76 0v1638h78v-1638h-78z" />
<glyph unicode="m" horiz-adv-x="1632" d="M76 0v1169h78v-104q94 104 233 104h158q182 0 272 -159q87 159 271 159h2h155q63 0 120.5 -24.5t100.5 -67.5t68 -99t25 -120v-858h-78v858q0 47 -19.5 90t-51.5 75t-75 50.5t-90 18.5h-155q-47 0 -90.5 -18.5t-75 -50.5t-50 -75t-18.5 -90v-858h-78v858q0 47 -18.5 89 t-51 75t-74.5 51.5t-89 18.5h-158q-47 0 -90 -18.5t-75 -50.5t-50 -75t-18 -90v-858h-78z" />
<glyph unicode="n" horiz-adv-x="929" d="M76 0v1169h78v-104q94 104 233 104h158q63 0 119.5 -24.5t99.5 -67.5t67.5 -99t24.5 -120v-858h-78v858q0 47 -18.5 89t-51 75t-74.5 51.5t-89 18.5h-158q-47 0 -90 -18.5t-75 -50.5t-50 -75t-18 -90v-858h-78z" />
<glyph unicode="o" horiz-adv-x="915" d="M68 311v547q0 63 24.5 120.5t67.5 99.5t99 66.5t120 24.5h158q63 0 119.5 -24.5t99.5 -67.5t67.5 -99t24.5 -120v-547q0 -63 -24.5 -119.5t-66.5 -99.5t-99.5 -67.5t-120.5 -24.5h-158q-66 0 -122 24.5t-98 66.5t-66.5 98.5t-24.5 121.5zM145 311q0 -49 18.5 -91 t50.5 -73.5t74 -50t91 -18.5h158q47 0 90 18.5t74.5 50t50 74.5t18.5 90v547q0 47 -18.5 89t-51 75t-74.5 51.5t-89 18.5h-158q-47 0 -90 -18.5t-75 -50.5t-50.5 -75t-18.5 -90v-547z" />
<glyph unicode="p" horiz-adv-x="878" d="M76 -469v1638h78v-104q94 104 233 104h158q63 0 119.5 -24.5t99.5 -67.5t67.5 -99t24.5 -120v-547q0 -63 -24.5 -119.5t-66.5 -99.5t-99.5 -67.5t-120.5 -24.5h-158q-139 0 -233 106v-575h-78zM154 311q0 -49 18 -91t50 -73.5t74 -50t91 -18.5h158q47 0 90 18.5t74.5 50 t50 74.5t18.5 90v547q0 47 -18.5 89t-51 75t-74.5 51.5t-89 18.5h-158q-47 0 -90 -18.5t-75 -50.5t-50 -75t-18 -90v-547z" />
<glyph unicode="q" horiz-adv-x="880" d="M23 311v547q0 63 24.5 120.5t67.5 99.5t99 66.5t120 24.5h158q137 0 233 -104v104h78v-1638h-78v575q-94 -106 -233 -106h-158q-66 0 -122 24.5t-98 66.5t-66.5 98.5t-24.5 121.5zM100 311q0 -49 18.5 -91t50.5 -73.5t74 -50t91 -18.5h158q47 0 90 18.5t74.5 50t50 74.5 t18.5 90v547q0 47 -18.5 89t-51 75t-74.5 51.5t-89 18.5h-158q-47 0 -90 -18.5t-75 -50.5t-50.5 -75t-18.5 -90v-547z" />
<glyph unicode="r" horiz-adv-x="464" d="M76 0v1169h78v-104q94 104 233 104h78v-77h-78q-47 0 -90 -18.5t-75 -50.5t-50 -75t-18 -90v-858h-78z" />
<glyph unicode="s" horiz-adv-x="894" d="M57 311h78q0 -49 18.5 -91t50.5 -73.5t73.5 -50t91.5 -18.5h157q47 0 90 18.5t75 50t50.5 74.5t18.5 90t-18.5 90t-50.5 75t-75 51.5t-90 19.5h-157q-66 0 -122.5 24.5t-98.5 66.5t-66.5 98.5t-24.5 121.5q0 63 24.5 120.5t68 99.5t99.5 66.5t120 24.5h157 q63 0 119.5 -24.5t99.5 -67.5t68 -99t25 -120h-78q0 47 -18.5 89t-51.5 75t-75 51.5t-89 18.5h-157q-47 0 -90 -18.5t-75 -50.5t-50.5 -75t-18.5 -90q0 -49 18.5 -91t50.5 -73.5t73.5 -50t91.5 -18.5h157q63 0 119.5 -25t99.5 -68t68 -100t25 -121q0 -63 -25 -119.5 t-66.5 -99.5t-99 -67.5t-121.5 -24.5h-157q-66 0 -122.5 24.5t-98.5 66.5t-66.5 98.5t-24.5 121.5z" />
<glyph unicode="t" horiz-adv-x="569" d="M4 1092v77h234v469h77v-469h236v-77h-236v-781q0 -49 18.5 -91t50.5 -73.5t75 -50t92 -18.5v-78q-66 0 -122 24.5t-99 67.5t-67.5 99.5t-24.5 119.5v781h-234z" />
<glyph unicode="u" horiz-adv-x="929" d="M72 311v858h78v-858q0 -49 18 -91t50 -73.5t74 -50t91 -18.5h158q47 0 90 18.5t74.5 50t50 74.5t18.5 90v858h78v-1169h-78v106q-94 -106 -233 -106h-158q-66 0 -122 24.5t-98 66.5t-66.5 98.5t-24.5 121.5z" />
<glyph unicode="v" horiz-adv-x="980" d="M27 1169h84l378 -1042l379 1042h84l-426 -1169h-73z" />
<glyph unicode="w" horiz-adv-x="1861" d="M47 1169h84l379 -1042l379 1042h84l379 -1042l379 1042h84l-426 -1169h-74l-385 1057l-383 -1057h-74z" />
<glyph unicode="x" horiz-adv-x="884" d="M59 0l338 586l-338 583h91l292 -505l293 505h90l-338 -583l338 -586h-90l-293 508l-292 -508h-91z" />
<glyph unicode="y" horiz-adv-x="980" d="M33 1169h84l383 -1054l385 1054h82l-596 -1638h-82l170 469z" />
<glyph unicode="z" horiz-adv-x="1007" d="M27 0v78l852 1014h-852v77h952v-77l-850 -1014h850v-78h-952z" />
<glyph unicode="{" horiz-adv-x="575" d="M4 547v80q47 0 90 18.5t75 50t50.5 74.5t18.5 90v467q0 63 24.5 119.5t67.5 99.5t99 67.5t122 24.5v-77q-47 0 -90 -18.5t-76 -50.5t-51.5 -74t-18.5 -91v-467q0 -184 -159 -272q160 -90 159 -275v-467q0 -49 18.5 -91t51.5 -73.5t76 -50t90 -18.5v-78q-66 0 -122 24.5 t-99 67.5t-67.5 99.5t-24.5 119.5v467q0 47 -18.5 89t-51.5 75t-75 51.5t-89 18.5z" />
<glyph unicode="|" d="M76 -469v2107h78v-2107h-78z" />
<glyph unicode="}" horiz-adv-x="575" d="M25 -387q47 0 90 18.5t74.5 51t50 75.5t18.5 90v465q0 186 162 275q-162 88 -162 272v467q0 47 -18.5 89t-51 75t-74.5 51.5t-89 18.5v77q63 0 119.5 -24.5t99.5 -67.5t67.5 -99t24.5 -120v-467q0 -49 18.5 -91t50 -73.5t74.5 -50t92 -18.5v-78q-49 0 -91 -18.5 t-74.5 -51.5t-51 -75t-18.5 -91v-465q0 -66 -24.5 -122t-67.5 -99t-99.5 -67.5t-119.5 -24.5v78z" />
<glyph unicode="~" horiz-adv-x="946" d="M59 1366q92 135 258 135q45 0 84 -15.5t76 -34.5t74 -34.5t80 -15.5q123 0 192 100l66 -45q-96 -133 -258 -133q-45 0 -83 15.5t-75 34t-75 33.5t-81 15q-125 0 -194 -98z" />
<glyph unicode="&#xa1;" horiz-adv-x="219" d="M63 0v1405h78v-1405h-78zM63 1561v77h78v-77h-78z" />
<glyph unicode="&#xa2;" horiz-adv-x="856" d="M49 311v547q0 63 24.5 120.5t67.5 99.5t99.5 66.5t119.5 24.5h158q45 0 88 -12l62 170h82l-72 -201q152 -92 151 -268h-77q0 121 -103 193l-350 -965q23 -8 61 -8h158q47 0 90 18.5t75 50t50.5 74.5t18.5 90h77q0 -63 -24.5 -119.5t-66.5 -99.5t-99 -67.5t-121 -24.5 h-158q-45 0 -88 12l-61 -168h-84l74 201q-152 90 -152 266zM127 311q0 -122 100 -192l353 964q-23 8 -62 9h-158q-47 0 -90 -18.5t-74.5 -50.5t-50 -75t-18.5 -90v-547z" />
<glyph unicode="&#xa3;" horiz-adv-x="940" d="M70 0v1208q0 88 33.5 167t92 137.5t136.5 92t168 33.5q86 0 163.5 -34.5t136 -93t93.5 -136.5t35 -166h-78q0 70 -27.5 134.5t-76 112.5t-112 77t-134.5 29q-72 0 -135.5 -28t-111.5 -76t-77 -111.5t-29 -137.5v-350h547v-78h-547v-702h781v-78h-858z" />
<glyph unicode="&#xa4;" horiz-adv-x="1136" d="M59 156l209 250q-90 90 -90 219v155q0 123 90 219l-209 250h103l168 -202q70 45 162 45h155q90 0 160 -45l170 202h100l-209 -250q90 -96 90 -219v-155q0 -129 -90 -219l209 -250h-100l-170 200q-70 -45 -160 -45h-155q-92 0 -162 45l-168 -200h-103zM256 625 q0 -49 18.5 -91t51 -75t74.5 -51.5t92 -18.5h155q47 0 90 19.5t75 51.5t50.5 75t18.5 90v155q0 47 -18.5 89t-51.5 75t-75 51.5t-89 18.5h-155q-47 0 -90.5 -18.5t-76 -50.5t-51 -74t-18.5 -91v-155z" />
<glyph unicode="&#xa5;" horiz-adv-x="1085" d="M25 1638h90l428 -741l428 741h90l-451 -780h441v-78h-469v-155h469v-78h-469v-547h-78v547h-469v78h469v155h-469v78h440z" />
<glyph unicode="&#xa6;" horiz-adv-x="198" d="M76 233h78v-702h-78v702zM76 936l78 702v-702h-78z" />
<glyph unicode="&#xa7;" horiz-adv-x="1136" d="M61 -39h78q0 -74 28 -137.5t76 -110.5t112.5 -74.5t136.5 -27.5h155q72 0 135.5 27.5t111.5 74.5t75.5 111.5t27.5 136.5t-27.5 135.5t-75.5 111.5t-111.5 75.5t-135.5 27.5h-155q-90 0 -168 34t-136.5 92.5t-92.5 136t-34 167.5q0 127 70 234q-70 106 -70 233 q0 88 34 167t92.5 137.5t136 92t168.5 33.5h155q86 0 164 -34.5t136.5 -93t93 -136.5t34.5 -166h-78q0 72 -27.5 136.5t-75.5 112.5t-111.5 76t-135.5 28h-155q-72 0 -135.5 -28t-111.5 -76t-77 -111.5t-29 -137.5q0 -72 28 -136t76 -111.5t112.5 -75t136.5 -27.5h155 q86 0 164 -35t136.5 -93t93 -136t34.5 -164q0 -129 -69 -235q70 -106 69 -234q0 -88 -34.5 -166t-93 -136t-136.5 -93t-164 -35h-155q-90 0 -168 34t-136.5 92t-92.5 136t-34 168zM139 741q0 -72 28 -136t76 -112.5t112.5 -76t136.5 -27.5h155q180 0 307 -129q43 76 43 170 q0 72 -27.5 135.5t-75.5 111.5t-111.5 75.5t-135.5 27.5h-155q-185 0 -310 131q-43 -80 -43 -170z" />
<glyph unicode="&#xa8;" horiz-adv-x="468" d="M76 1325v80h78v-80h-78zM309 1325v80h80v-80h-80z" />
<glyph unicode="&#xa9;" horiz-adv-x="1859" d="M72 -39v1247q0 88 33.5 167t92 137.5t136.5 92t168 33.5h858q86 0 164 -34.5t136 -93t93 -136.5t35 -166v-1247q0 -88 -35 -166t-93 -136t-136 -93t-164 -35h-858q-90 0 -168 34t-136.5 92t-92 136t-33.5 168zM150 -39q0 -74 27.5 -137.5t75.5 -110.5t112.5 -74.5 t136.5 -27.5h858q72 0 135.5 27.5t111.5 75.5t75.5 111.5t27.5 135.5v1247q0 70 -27.5 134.5t-75.5 112.5t-111.5 77t-135.5 29h-858q-72 0 -135.5 -28t-111.5 -76t-76.5 -111.5t-28.5 -137.5v-1247zM541 311v547q0 63 24.5 120.5t67.5 99.5t99 66.5t120 24.5h156 q63 0 120.5 -24.5t100.5 -67.5t67.5 -99t24.5 -120h-80q0 47 -18.5 89t-51 75t-74.5 51.5t-89 18.5h-156q-47 0 -90 -18.5t-75 -50.5t-50.5 -75t-18.5 -90v-547q0 -49 18.5 -91t50.5 -73.5t74 -50t91 -18.5h156q47 0 90 18.5t74.5 50t50 74.5t18.5 90h80q0 -63 -24.5 -119.5 t-67.5 -99.5t-100.5 -67.5t-120.5 -24.5h-156q-66 0 -122 24.5t-98 66.5t-66.5 98.5t-24.5 121.5z" />
<glyph unicode="&#xaa;" horiz-adv-x="575" d="M59 1247l78 2h-78q0 63 46.5 109.5t109.5 46.5h156v78q0 33 -22.5 55.5t-55.5 22.5h-78q-33 0 -55.5 -22.5t-22.5 -55.5h-78q0 63 46.5 109t109.5 46h78q66 0 111 -46t45 -109v-236q2 -33 24.5 -55.5t54.5 -22.5v-77q-72 0 -118 53q-47 -53 -117 -53h-78q-63 0 -109.5 46 t-46.5 109zM137 1247q0 -31 22.5 -54.5t55.5 -23.5h78q33 0 55.5 22.5t22.5 55.5v80h-156q-33 0 -55.5 -23.5t-22.5 -54.5v-2z" />
<glyph unicode="&#xab;" horiz-adv-x="526" d="M35 586l158 -275h90l-158 275l158 272h-90zM215 586l158 272h90l-158 -272l158 -275h-90z" />
<glyph unicode="&#xac;" horiz-adv-x="473" />
<glyph unicode="&#xad;" horiz-adv-x="778" d="M76 547v78h624v-78h-624z" />
<glyph unicode="&#xae;" horiz-adv-x="1859" d="M72 -39v1247q0 88 33.5 167t92 137.5t136.5 92t168 33.5h858q86 0 164 -34.5t136 -93t93 -136.5t35 -166v-1247q0 -88 -35 -166t-93 -136t-136 -93t-164 -35h-858q-90 0 -168 34t-136.5 92t-92 136t-33.5 168zM150 -39q0 -74 27.5 -137.5t75.5 -110.5t112.5 -74.5 t136.5 -27.5h858q72 0 135.5 27.5t111.5 75.5t75.5 111.5t27.5 135.5v1247q0 70 -27.5 134.5t-75.5 112.5t-111.5 77t-135.5 29h-858q-72 0 -135.5 -28t-111.5 -76t-76.5 -111.5t-28.5 -137.5v-1247zM541 0h77v547h420l199 -547h82l-205 565q92 33 149.5 113t57.5 180 q0 63 -24.5 119.5t-67.5 99.5t-100.5 67.5t-120.5 24.5h-467v-77h467q47 0 89 -18.5t74.5 -51.5t51 -75t18.5 -89t-18.5 -90t-50 -74.5t-74.5 -50t-90 -18.5h-390l-77 467v-1092z" />
<glyph unicode="&#xaf;" horiz-adv-x="1167" d="M76 1638v78h1014v-78h-1014z" />
<glyph unicode="&#xb0;" horiz-adv-x="1005" d="M74 936v547q0 63 46 109t109 46h547q63 0 109.5 -46t46.5 -109v-547q0 -63 -46 -109.5t-110 -46.5h-547q-63 0 -109 46t-46 110zM152 936q0 -33 22.5 -55.5t54.5 -22.5h547q33 0 55.5 22.5t22.5 55.5v547q0 33 -22.5 55.5t-55.5 22.5h-547q-33 0 -55 -22.5t-22 -55.5 v-547z" />
<glyph unicode="&#xb1;" horiz-adv-x="794" d="M6 156v77h780v-77h-780zM6 741v78h350v350h80v-350h350v-78h-350v-352h-80v352h-350z" />
<glyph unicode="&#xb2;" horiz-adv-x="518" d="M66 1092v157q0 63 46 109.5t109 46.5h78q33 0 55.5 22.5t22.5 55.5t-22.5 55.5t-55.5 22.5h-78q-33 0 -55.5 -22.5t-22.5 -55.5h-77q0 63 46 109t109 46h78q66 0 111 -46t45 -109q0 -66 -45 -111t-111 -45h-78q-33 0 -55.5 -23.5t-22.5 -54.5v-80h312v-77h-389z" />
<glyph unicode="&#xb3;" horiz-adv-x="505" d="M53 1247h78q0 -31 22.5 -54.5t55.5 -23.5h78q33 0 55.5 24t22.5 54v2q0 29 -23 53.5t-53 24.5h-80v78h80q31 0 53.5 22.5t22.5 55.5t-23 55.5t-55 22.5h-78q-33 0 -55.5 -22.5t-22.5 -55.5h-78q0 63 46 109t110 46h78q66 0 110.5 -46t44.5 -109q0 -72 -51 -117 q51 -45 51 -117v-2q0 -63 -45 -109t-110 -46h-78q-63 0 -109.5 46t-46.5 109z" />
<glyph unicode="&#xb4;" horiz-adv-x="223" d="M29 1325l86 236h82l-84 -236h-84z" />
<glyph unicode="&#xb5;" horiz-adv-x="1095" d="M76 -469v1638h78v-858q0 -49 18 -91t50 -73.5t74 -50t91 -18.5h158q47 0 90 18.5t74.5 50t50 74.5t18.5 90v858h78v-858q0 -49 18.5 -91t50 -73.5t73.5 -50t92 -18.5v-78q-184 0 -273 162q-88 -162 -272 -162h-158q-139 0 -233 106v-575h-78z" />
<glyph unicode="&#xb6;" horiz-adv-x="753" d="M12 1208q0 88 34 167t92.5 137.5t136 92t167.5 33.5h234v-1638h-78v1561h-78v-1561h-78v780q-90 0 -167.5 34t-136 92.5t-92.5 136t-34 165.5z" />
<glyph unicode="&#xb7;" d="M76 780v78h78v-78h-78z" />
<glyph unicode="&#xb8;" horiz-adv-x="370" d="M55 -197q82 0 139.5 57.5t57.5 139.5h65q0 -53 -21.5 -100t-57 -83t-84 -57.5t-99.5 -21.5v65z" />
<glyph unicode="&#xb9;" horiz-adv-x="256" d="M16 1423v123l78 92h78v-546h-78v426z" />
<glyph unicode="&#xba;" horiz-adv-x="524" d="M66 1247v2l77 -2q0 -31 22.5 -54.5t55.5 -23.5h78q33 0 55.5 24t22.5 56v234q0 33 -22.5 55.5t-55.5 22.5h-78q-33 0 -55.5 -22.5t-22.5 -55.5v-234h-77v234q0 63 46 109t109 46h78q66 0 111 -46t45 -109v-234q0 -66 -45 -111.5t-111 -45.5h-78q-63 0 -109 46t-46 109z " />
<glyph unicode="&#xbb;" horiz-adv-x="526" d="M61 311l158 275l-158 272h91l157 -272l-157 -275h-91zM242 311l157 275l-157 272h90l157 -272l-157 -275h-90z" />
<glyph unicode="&#xbc;" horiz-adv-x="1120" d="M37 0l946 1638h90l-946 -1638h-90zM289 1423l78 95v-426h77v546h-77l-78 -92v-123zM553 156v77l113 314h84l-115 -314h151v156h78v-156h78v-77h-78v-156h-78v156h-233z" />
<glyph unicode="&#xbd;" horiz-adv-x="1122" d="M37 0l946 1638h90l-946 -1638h-90zM289 1423l78 95v-426h77v546h-77l-78 -92v-123zM639 0v156q0 66 46 110.5t112 44.5h77q31 0 54.5 23.5t23.5 54.5q0 33 -23.5 56.5t-54.5 23.5h-77q-33 0 -56.5 -23.5t-23.5 -56.5h-78q0 66 46 112t112 46h77q63 0 109.5 -46t46.5 -112 q0 -63 -46 -109.5t-110 -46.5h-77q-33 0 -56.5 -22.5t-23.5 -54.5v-78h313v-78h-391z" />
<glyph unicode="&#xbe;" horiz-adv-x="1138" d="M55 0l946 1638h91l-947 -1638h-90zM72 1235v12h78v-6q2 -29 24.5 -50.5t52.5 -21.5h78q29 0 53.5 21.5t24.5 56.5v8q-6 61 -78 72h-78v78h78q33 0 53 20l9 9q0 10 8 19t8 30v6q0 20 -6 31.5t-12.5 17.5t-11.5 7l-5 1q-10 8 -21.5 11.5t-21.5 3.5h-78q-12 0 -27.5 -5.5 t-21.5 -11.5l-4 -4q-10 -8 -17 -21.5t-7 -23.5v-12h-78q0 63 44 109t111 46h84q37 -4 62.5 -19t42 -33.5t26 -35t13.5 -24.5q6 -23 6 -43q0 -63 -53 -117q4 -4 14 -15.5t16 -19.5l6 -12q6 -18 11.5 -34t5.5 -36v-2q0 -43 -16.5 -72.5t-41 -48t-51 -26.5t-47.5 -8h-98 q-16 8 -40 16t-45.5 21.5t-35.5 38t-14 67.5zM567 156v77l113 314h84l-115 -314h152v156h78v-156h77v-77h-77v-156h-78v156h-234z" />
<glyph unicode="&#xbf;" horiz-adv-x="1040" d="M14 430q0 88 34 166t92.5 136.5t136 92t167.5 33.5h78v547h78v-625h-156q-72 0 -135 -27.5t-111 -75.5t-77 -111.5t-29 -135.5t27.5 -136.5t76 -112.5t113 -75.5t135.5 -27.5h156q74 0 137.5 27.5t110.5 75.5t74.5 112.5t27.5 136.5h78q0 -90 -33.5 -168t-92 -136 t-136.5 -92t-166 -34h-156q-90 0 -167.5 34t-136 92t-92.5 136t-34 168zM522 1561v77h78v-77h-78z" />
<glyph unicode="&#xc0;" horiz-adv-x="1300" d="M18 0l596 1638h74l596 -1638h-82l-198 547h-703l-199 -547h-84zM328 625h647l-324 886zM522 2030h82l86 -236h-82z" />
<glyph unicode="&#xc1;" horiz-adv-x="1300" d="M16 0l596 1638h74l596 -1638h-82l-199 547h-702l-199 -547h-84zM326 625h647l-324 886zM602 1794l86 236h84l-86 -236h-84z" />
<glyph unicode="&#xc2;" horiz-adv-x="1302" d="M18 0l596 1638h74l596 -1638h-82l-198 547h-703l-199 -547h-84zM328 625h647l-324 886zM428 1794l223 234h31l197 -234h-103l-125 150l-125 -150h-98z" />
<glyph unicode="&#xc3;" horiz-adv-x="1310" d="M23 0l595 1638h74l596 -1638h-82l-198 547h-703l-199 -547h-83zM244 1837q92 133 256 133q45 0 83 -15.5t74.5 -33.5t73.5 -33.5t80 -15.5q121 0 193 98l63 -43q-92 -133 -256 -133q-47 0 -85 15.5t-75 34t-72.5 33.5t-78.5 15q-123 0 -193 -100zM332 625h647l-324 886z " />
<glyph unicode="&#xc4;" horiz-adv-x="1302" d="M18 0l596 1638h74l596 -1638h-82l-198 547h-703l-199 -547h-84zM328 625h647l-324 886zM496 1794v78h77v-78h-77zM729 1794v78h78v-78h-78z" />
<glyph unicode="&#xc5;" horiz-adv-x="1314" d="M25 0l596 1638h73l596 -1638h-82l-198 547h-703l-198 -547h-84zM334 625h647l-324 886zM502 1948q0 66 44.5 110.5t110.5 44.5q63 0 109.5 -45t46.5 -110q0 -63 -46 -109.5t-110 -46.5q-66 0 -110.5 46t-44.5 110zM580 1948q0 -33 22.5 -55.5t54.5 -22.5q33 0 55.5 22.5 t22.5 55.5t-22.5 55t-55.5 22t-55 -22.5t-22 -54.5z" />
<glyph unicode="&#xc6;" horiz-adv-x="473" />
<glyph unicode="&#xc7;" horiz-adv-x="1095" d="M55 430v778q0 88 34 167t92.5 137.5t136 92t167.5 33.5h156q86 0 164 -34.5t136 -93t93 -136.5t35 -166h-78q0 72 -27.5 136.5t-75.5 112.5t-111.5 76t-135.5 28h-156q-72 0 -135 -28t-111.5 -76t-77 -111.5t-28.5 -137.5v-778q0 -72 27.5 -136.5t76 -112.5t113 -75.5 t135.5 -27.5h156q74 0 137.5 27.5t110.5 75.5t74.5 112.5t27.5 136.5h78q0 -90 -34 -168t-92 -136t-136 -92t-166 -34h-39q0 -63 -24.5 -119.5t-67.5 -99.5t-100.5 -67.5t-120.5 -24.5v78q47 0 90 18t74.5 50t51 75t19.5 90h-39q-90 0 -167.5 34t-136 92t-92.5 136t-34 168z " />
<glyph unicode="&#xc8;" horiz-adv-x="1067" d="M53 0v1638h1014v-77h-936v-703h703v-78h-703v-702h936v-78h-1014zM434 2030h82l86 -236h-84z" />
<glyph unicode="&#xc9;" horiz-adv-x="1064" d="M51 0v1638h1014v-77h-936v-703h702v-78h-702v-702h936v-78h-1014zM514 1794l86 236h84l-86 -236h-84z" />
<glyph unicode="&#xca;" horiz-adv-x="1069" d="M55 0v1638h1014v-77h-936v-703h703v-78h-703v-702h936v-78h-1014zM338 1794l197 236h61l197 -236h-103l-125 150l-125 -150h-102z" />
<glyph unicode="&#xcb;" horiz-adv-x="1075" d="M61 0v1638h1014v-77h-936v-703h703v-78h-703v-702h936v-78h-1014zM414 1796v78h80v-78h-80zM649 1796v78h80v-78h-80z" />
<glyph unicode="&#xcc;" d="M2 2030h164v-236h-78zM88 0v1638h78v-1638h-78z" />
<glyph unicode="&#xcd;" horiz-adv-x="233" d="M61 0v1638h78v-1638h-78zM61 1794l78 236h92l-86 -236h-84z" />
<glyph unicode="&#xce;" horiz-adv-x="466" d="M4 1794l272 227l183 -227h-103l-125 150l-125 -150h-102zM199 0v1638h77v-1638h-77zM262 2030h14l-8 -9z" />
<glyph unicode="&#xcf;" horiz-adv-x="325" d="M8 1794v78h189l-111 -78h-78zM119 0v1638h78v-1638h-78zM242 1794v78h77v-78h-77z" />
<glyph unicode="&#xd1;" horiz-adv-x="1138" d="M63 0v1638h78l856 -1482v1482h78v-1638h-78l-856 1483v-1483h-78zM162 1839q92 133 256 133q45 0 84 -15t75.5 -33.5t73.5 -34t78 -15.5q123 0 193 100l63 -45q-92 -133 -256 -133q-47 0 -85 15.5t-75 34t-72.5 33.5t-78.5 15q-123 0 -193 -100z" />
<glyph unicode="&#xd2;" horiz-adv-x="1105" d="M47 430v778q0 88 34 167t92 137.5t136 92t168 33.5h156q86 0 163.5 -34.5t136 -93t93.5 -136.5t35 -166v-778q0 -90 -34 -168t-92 -136t-136 -92t-166 -34h-156q-90 0 -168 34t-136 92t-92 136t-34 168zM125 430q0 -72 27.5 -136.5t75.5 -112.5t113 -75.5t136 -27.5h156 q74 0 137.5 27.5t110.5 75.5t74.5 112.5t27.5 136.5v778q0 72 -27.5 136.5t-76 112.5t-111.5 76t-135 28h-156q-72 0 -135 -28t-111.5 -76t-77 -111.5t-28.5 -137.5v-778zM428 2030h82l86 -236h-84z" />
<glyph unicode="&#xd3;" horiz-adv-x="1103" d="M43 430q0 -90 34 -168t92 -136t136 -92t168 -34h156q88 0 165.5 34t136 92t92.5 136t34 168v778q0 88 -35 166t-93.5 136.5t-136 93t-163.5 34.5h-156q-90 0 -168 -33.5t-136 -92t-92 -137.5t-34 -167v-778zM121 430v778q0 74 28.5 137.5t76.5 111.5t111.5 76t135.5 28 h156q72 0 135 -28t111.5 -76t76 -112.5t27.5 -136.5v-778q0 -72 -27.5 -136.5t-75 -112.5t-110.5 -75.5t-137 -27.5h-156q-72 0 -136.5 27.5t-112.5 75.5t-75.5 112.5t-27.5 136.5zM506 1794l86 236h84l-86 -236h-84z" />
<glyph unicode="&#xd4;" horiz-adv-x="1110" d="M47 430q0 -90 34 -168t92 -136t136 -92t168 -34h156q88 0 166 34t136 92t92 136t34 168v778q0 88 -35 166t-93.5 136.5t-136 93t-163.5 34.5h-156q-90 0 -168 -33.5t-136 -92t-92 -137.5t-34 -167v-778zM125 430v778q0 74 28.5 137.5t77 111.5t112 76t134.5 28h156 q72 0 135 -28t111.5 -76t76 -112.5t27.5 -136.5v-778q0 -72 -27.5 -136.5t-74.5 -112.5t-110.5 -75.5t-137.5 -27.5h-156q-72 0 -136.5 27.5t-112.5 75.5t-75.5 112.5t-27.5 136.5zM330 1794l196 236h62l196 -236h-102l-125 150l-125 -150h-102z" />
<glyph unicode="&#xd5;" horiz-adv-x="1122" d="M53 430q0 -90 34 -168t92.5 -136t136 -92t167.5 -34h156q88 0 166 34t136 92t92 136t34 168v778q0 88 -35 166t-93 136.5t-136 93t-164 34.5h-156q-90 0 -167.5 -33.5t-136 -92t-92.5 -137.5t-34 -167v-778zM131 430v778q0 74 28.5 137.5t77 111.5t112 76t134.5 28h156 q72 0 135.5 -28t111.5 -76t75.5 -112.5t27.5 -136.5v-778q0 -72 -27.5 -136.5t-74.5 -112.5t-110.5 -75.5t-137.5 -27.5h-156q-72 0 -136 27.5t-112.5 75.5t-76 112.5t-27.5 136.5zM147 1839q96 133 256 133q45 0 83 -15t75 -33.5t75 -34t81 -15.5q123 0 192 100l64 -45 q-92 -133 -256 -133q-47 0 -86 15.5t-76 34t-74 33.5t-78 15q-121 0 -190 -100z" />
<glyph unicode="&#xd6;" horiz-adv-x="1116" d="M51 430q0 -90 34 -168t92.5 -136t136 -92t167.5 -34h156q88 0 166 34t136 92t92 136t34 168v778q0 88 -35 166t-93 136.5t-136 93t-164 34.5h-156q-90 0 -167.5 -33.5t-136 -92t-92.5 -137.5t-34 -167v-778zM129 430v778q0 74 28.5 137.5t77 111.5t112 76t134.5 28h156 q72 0 135.5 -28t111.5 -76t75.5 -112.5t27.5 -136.5v-778q0 -72 -27.5 -136.5t-74.5 -112.5t-110.5 -75.5t-137.5 -27.5h-156q-72 0 -136 27.5t-112.5 75.5t-76 112.5t-27.5 136.5zM403 1796v78h80v-78h-80zM639 1796v78h80v-78h-80z" />
<glyph unicode="&#xd7;" horiz-adv-x="811" d="M59 233l295 353l-295 350h103l244 -291l243 291h101l-293 -350l293 -353h-101l-243 291l-244 -291h-103z" />
<glyph unicode="&#xd8;" horiz-adv-x="1124" d="M55 430v778q0 88 34 167t92.5 137.5t136 92t167.5 33.5h156q94 0 166 -32l70 188h81l-81 -227q193 -125 192 -359v-778q0 -90 -34 -168t-92 -136t-136 -92t-166 -34h-156q-96 0 -168 33l-67 -189h-84l82 228q-193 125 -193 358zM133 430q0 -178 143 -283l504 1385 q-76 29 -139 29h-156q-72 0 -135 -28t-111.5 -76t-77 -111.5t-28.5 -137.5v-778zM344 106q76 -29 141 -28h156q74 0 137.5 27.5t110.5 75.5t74.5 112.5t27.5 136.5v778q0 178 -143 283z" />
<glyph unicode="&#xd9;" horiz-adv-x="1114" d="M51 430v1208h78v-1208q0 -72 27.5 -136.5t76 -112.5t113 -75.5t135.5 -27.5h156q74 0 137.5 27.5t110.5 75.5t74.5 112.5t27.5 136.5v1208h78v-1208q0 -90 -34 -168t-92 -136t-136 -92t-166 -34h-156q-90 0 -167.5 34t-136 92t-92.5 136t-34 168zM432 2030h82l86 -236 h-84z" />
<glyph unicode="&#xda;" horiz-adv-x="1112" d="M47 430v1208h78v-1208q0 -72 27.5 -136.5t75.5 -112.5t113 -75.5t136 -27.5h156q74 0 137.5 27.5t110.5 75.5t74.5 112.5t27.5 136.5v1208h78v-1208q0 -90 -34 -168t-92 -136t-136 -92t-166 -34h-156q-90 0 -168 34t-136 92t-92 136t-34 168zM510 1794l86 236h84 l-86 -236h-84z" />
<glyph unicode="&#xdb;" horiz-adv-x="1118" d="M51 430v1208h78v-1208q0 -72 27.5 -136.5t76 -112.5t113 -75.5t135.5 -27.5h156q74 0 137.5 27.5t110.5 75.5t74.5 112.5t27.5 136.5v1208h78v-1208q0 -90 -34 -168t-92 -136t-136 -92t-166 -34h-156q-90 0 -167.5 34t-136 92t-92.5 136t-34 168zM334 1794l196 236h62 l196 -236h-102l-125 150l-125 -150h-102z" />
<glyph unicode="&#xdc;" horiz-adv-x="1128" d="M57 430v1208h78v-1208q0 -72 27.5 -136.5t76 -112.5t113 -75.5t135.5 -27.5h156q74 0 137.5 27.5t110.5 75.5t74.5 112.5t27.5 136.5v1208h78v-1208q0 -90 -33.5 -168t-92 -136t-136.5 -92t-166 -34h-156q-90 0 -167.5 34t-136 92t-92.5 136t-34 168zM410 1796v78h79v-78 h-79zM645 1796v78h80v-78h-80z" />
<glyph unicode="&#xdd;" horiz-adv-x="1050" d="M6 1638h90l428 -741l428 741h90l-479 -829v-809h-78v809zM489 1794l74 236h96l-86 -236h-84z" />
<glyph unicode="&#xdf;" horiz-adv-x="921" d="M74 0v1327q0 63 24.5 120.5t67.5 99.5t99.5 66.5t119.5 24.5h158q63 0 119.5 -24.5t99.5 -67.5t67.5 -99t24.5 -120v-235q0 -184 -162 -273q162 -88 162 -272v-236q0 -63 -24.5 -119.5t-66.5 -99.5t-99.5 -67.5t-120.5 -24.5h-158v78h158q47 0 90 18.5t74.5 50t50 74.5 t18.5 90v236q0 47 -18.5 89t-51 74.5t-74.5 51t-89 18.5h-158v78h158q47 0 90 18.5t74.5 50t50 74.5t18.5 91v235q0 47 -18.5 89t-51 75t-74.5 51.5t-89 18.5h-158q-47 0 -90 -18.5t-75 -50.5t-50 -75t-18 -90v-1327h-78z" />
<glyph unicode="&#xe0;" horiz-adv-x="1071" d="M43 311q0 63 24.5 120.5t67.5 100.5t99.5 68t119.5 25h391v233q0 47 -18 89t-51 75t-75 51.5t-89 18.5h-158q-47 0 -90 -18.5t-74.5 -50.5t-50 -75t-18.5 -90h-78q0 63 24.5 120.5t67.5 99.5t99.5 66.5t119.5 24.5h158q63 0 119.5 -24.5t99.5 -67.5t67.5 -99t24.5 -120 v-547q0 -49 18.5 -91t50.5 -73.5t74 -50t91 -18.5v-78q-184 0 -273 162q-88 -162 -272 -162h-158q-66 0 -122 24.5t-98 66.5t-66.5 98.5t-24.5 121.5zM121 311q0 -49 18.5 -91t50 -73.5t73.5 -50t91 -18.5h158q47 0 90 18.5t75 50t50 74.5t18 90v236h-391q-47 0 -89 -18.5 t-74.5 -50.5t-51 -75t-18.5 -92zM303 1561h84l84 -236h-82z" />
<glyph unicode="&#xe1;" horiz-adv-x="1069" d="M37 311q0 63 24.5 120.5t67.5 100.5t99.5 68t119.5 25h391v233q0 47 -18.5 89t-51 75t-74.5 51.5t-89 18.5h-158q-47 0 -90 -18.5t-74.5 -50.5t-50 -75t-18.5 -90h-78q0 63 24.5 120.5t67.5 99.5t99.5 66.5t119.5 24.5h158q63 0 119.5 -24.5t99.5 -67.5t67.5 -99 t24.5 -120v-547q0 -49 18.5 -91t50.5 -73.5t73.5 -50t91.5 -18.5v-78q-184 0 -273 162q-88 -162 -272 -162h-158q-66 0 -122 24.5t-98 66.5t-66.5 98.5t-24.5 121.5zM115 311q0 -49 18.5 -91t50 -73.5t73.5 -50t91 -18.5h158q47 0 90 18.5t74.5 50t50 74.5t18.5 90v236h-391 q-47 0 -89 -18.5t-74.5 -50.5t-51 -75t-18.5 -92zM387 1325l86 236h84l-86 -236h-84z" />
<glyph unicode="&#xe2;" horiz-adv-x="1079" d="M45 311q0 63 24.5 120.5t67.5 100.5t99.5 68t119.5 25h392v233q0 47 -18.5 89t-51.5 75t-75 51.5t-89 18.5h-158q-47 0 -90 -18.5t-74.5 -50.5t-50 -75t-18.5 -90h-78q0 63 24.5 120.5t67.5 99.5t99.5 66.5t119.5 24.5h158q63 0 119.5 -24.5t99.5 -67.5t67.5 -99 t24.5 -120v-547q0 -49 18.5 -91t50.5 -73.5t74 -50t91 -18.5v-78q-184 0 -273 162q-88 -162 -272 -162h-158q-66 0 -122 24.5t-98 66.5t-66.5 98.5t-24.5 121.5zM123 311q0 -49 18.5 -91t50 -73.5t73.5 -50t91 -18.5h158q47 0 90 18.5t75 50t50.5 74.5t18.5 90v236h-392 q-47 0 -89 -18.5t-74.5 -50.5t-51 -75t-18.5 -92zM209 1325l197 236h59l197 -236h-103l-125 150l-123 -150h-102z" />
<glyph unicode="&#xe3;" horiz-adv-x="1089" d="M49 311q0 63 24.5 120.5t67.5 100.5t99.5 68t119.5 25h392v233q0 47 -18.5 89t-51.5 75t-75 51.5t-89 18.5h-158q-47 0 -90 -18.5t-74.5 -50.5t-50 -75t-18.5 -90h-78q0 63 24.5 120.5t67.5 99.5t99.5 66.5t119.5 24.5h158q63 0 119.5 -24.5t99.5 -67.5t67.5 -99 t24.5 -120v-547q0 -49 18.5 -91t50.5 -73.5t74 -50t91 -18.5v-78q-184 0 -272 162q-88 -162 -273 -162h-158q-66 0 -122 24.5t-98 66.5t-66.5 98.5t-24.5 121.5zM49 1366q92 135 258 135q45 0 84 -15.5t76 -34.5t74 -34.5t80 -15.5q123 0 192 100l66 -45q-96 -133 -258 -133 q-45 0 -83 15.5t-75 34t-75 33.5t-81 15q-125 0 -194 -98zM127 311q0 -49 18.5 -91t50 -73.5t73.5 -50t91 -18.5h158q47 0 90 18.5t75 50t50.5 74.5t18.5 90v236h-392q-47 0 -89 -18.5t-74.5 -50.5t-51 -75t-18.5 -92z" />
<glyph unicode="&#xe4;" horiz-adv-x="1062" d="M33 311q0 63 24.5 120.5t67.5 100.5t99.5 68t119.5 25h391v233q0 47 -18.5 89t-51 75t-74.5 51.5t-89 18.5h-158q-47 0 -90 -18.5t-75 -50.5t-50 -75t-18 -90h-78q0 63 24.5 120.5t67.5 99.5t99.5 66.5t119.5 24.5h158q63 0 119.5 -24.5t99.5 -67.5t67.5 -99t24.5 -120 v-547q0 -49 18.5 -91t50 -73.5t73.5 -50t92 -18.5v-78q-184 0 -273 162q-88 -162 -272 -162h-158q-66 0 -122 24.5t-98 66.5t-66.5 98.5t-24.5 121.5zM111 311q0 -49 18 -91t50 -73.5t74 -50t91 -18.5h158q47 0 90 18.5t74.5 50t50 74.5t18.5 90v236h-391q-47 0 -89 -18.5 t-75 -50.5t-51 -75t-18 -92zM266 1325v80h78v-80h-78zM502 1325v80h78v-80h-78z" />
<glyph unicode="&#xe5;" horiz-adv-x="1081" d="M47 311q0 63 24.5 120.5t67.5 100.5t99.5 68t119.5 25h392v233q0 47 -18.5 89t-51.5 75t-75 51.5t-89 18.5h-158q-47 0 -90 -18.5t-74.5 -50.5t-50 -75t-18.5 -90h-78q0 63 24.5 120.5t67.5 99.5t99.5 66.5t119.5 24.5h158q63 0 119.5 -24.5t99.5 -67.5t67.5 -99 t24.5 -120v-547q0 -49 18.5 -91t50.5 -73.5t74 -50t91 -18.5v-78q-184 0 -273 162q-88 -162 -272 -162h-158q-66 0 -122 24.5t-98 66.5t-66.5 98.5t-24.5 121.5zM125 311q0 -49 18.5 -91t50 -73.5t73.5 -50t91 -18.5h158q47 0 90 18.5t75 50t50.5 74.5t18.5 90v236h-392 q-47 0 -89 -18.5t-74.5 -50.5t-51 -75t-18.5 -92zM283 1481q0 66 46 111.5t109 45.5q66 0 112 -46t46 -111q0 -63 -46 -109.5t-112 -46.5q-63 0 -109 46t-46 110zM360 1481q0 -31 24 -54.5t54 -23.5q33 0 56.5 23.5t23.5 54.5q0 33 -23.5 56.5t-56.5 23.5q-31 0 -54.5 -24 t-23.5 -56z" />
<glyph unicode="&#xe6;" horiz-adv-x="473" />
<glyph unicode="&#xe7;" horiz-adv-x="860" d="M55 311v547q0 63 24.5 120.5t67.5 99.5t99.5 66.5t120.5 24.5h157q63 0 119.5 -24.5t99.5 -67.5t68 -99t25 -120h-78q0 47 -18.5 89t-51.5 75t-75 51.5t-89 18.5h-157q-47 0 -90.5 -18.5t-75 -50.5t-50 -75t-18.5 -90v-547q0 -49 18.5 -91t50 -73.5t73.5 -50t92 -18.5 h157q47 0 90 18.5t75 50t50.5 74.5t18.5 90h78q0 -63 -25 -119.5t-67 -99.5t-99 -67.5t-121 -24.5h-39q0 -63 -24.5 -119.5t-67.5 -99.5t-100 -67.5t-121 -24.5v78q47 0 89 18t75 51t51.5 75t18.5 89h-39q-66 0 -122.5 24.5t-98.5 66.5t-66.5 98.5t-24.5 121.5z" />
<glyph unicode="&#xe8;" horiz-adv-x="862" d="M47 311v547q0 63 24.5 120.5t67.5 99.5t99.5 66.5t119.5 24.5h158q61 0 117.5 -24.5t99.5 -66.5t68.5 -99t25.5 -121v-311h-702v-236q0 -49 18.5 -91t50 -73.5t73.5 -50t91 -18.5h158q47 0 90 18.5t75 50t50.5 74.5t18.5 90h77q0 -63 -24.5 -119.5t-67.5 -99.5t-99 -67.5 t-120 -24.5h-158q-66 0 -122 24.5t-98 66.5t-66.5 98.5t-24.5 121.5zM125 625h625v233q0 47 -18.5 89t-51.5 75t-75 51.5t-89 18.5h-158q-47 0 -90 -18.5t-74.5 -50.5t-50 -75t-18.5 -90v-233zM307 1561h84l84 -236h-82z" />
<glyph unicode="&#xe9;" horiz-adv-x="862" d="M41 311q0 -66 24.5 -122t66.5 -98t98.5 -66.5t121.5 -24.5h158q63 0 119.5 24.5t99.5 67.5t67.5 99.5t24.5 119.5h-78q0 -47 -18 -90t-50 -74.5t-75 -50t-90 -18.5h-158q-49 0 -91 18.5t-73.5 50t-50 73.5t-18.5 91v236h702v311q0 63 -25.5 120.5t-68.5 99.5t-99.5 66.5 t-117.5 24.5h-158q-63 0 -119.5 -24.5t-99.5 -66.5t-67.5 -99t-24.5 -121v-547zM119 625v233q0 47 18.5 90t50 75t74.5 50.5t90 18.5h158q47 0 89 -18.5t75 -51.5t51 -75t18 -89v-233h-624zM391 1325l86 236h84l-86 -236h-84z" />
<glyph unicode="&#xea;" horiz-adv-x="874" d="M49 311q0 -66 24.5 -122t66.5 -98t98.5 -66.5t121.5 -24.5h158q63 0 119.5 24.5t99.5 67.5t67.5 99.5t24.5 119.5h-77q0 -47 -18.5 -90t-50.5 -74.5t-75 -50t-90 -18.5h-158q-49 0 -91 18.5t-73.5 50t-50 73.5t-18.5 91v236h702v311q0 63 -25.5 120.5t-68.5 99.5 t-99 66.5t-118 24.5h-158q-63 0 -119.5 -24.5t-99.5 -66.5t-67.5 -99t-24.5 -121v-547zM127 625v233q0 47 18.5 90t50 75t74.5 50.5t90 18.5h158q47 0 89 -18.5t75 -51.5t51.5 -75t18.5 -89v-233h-625zM213 1325l197 236h59l197 -236h-103l-125 150l-123 -150h-102z" />
<glyph unicode="&#xeb;" horiz-adv-x="862" d="M45 311q0 -66 24.5 -122t66.5 -98t98.5 -66.5t121.5 -24.5h158q63 0 119.5 24.5t99.5 67.5t67.5 99.5t24.5 119.5h-77q0 -47 -18.5 -90t-50.5 -74.5t-75 -50t-90 -18.5h-158q-49 0 -91 18.5t-73.5 50t-50 73.5t-18.5 91v236h702v311q0 63 -25.5 120.5t-68.5 99.5 t-99.5 66.5t-117.5 24.5h-158q-63 0 -119.5 -24.5t-99.5 -66.5t-67.5 -99t-24.5 -121v-547zM123 625v233q0 47 18.5 90t50 75t74.5 50.5t90 18.5h158q47 0 89 -18.5t75 -51.5t51.5 -75t18.5 -89v-233h-625zM279 1325v80h77v-80h-77zM514 1325v80h78v-80h-78z" />
<glyph unicode="&#xec;" horiz-adv-x="251" d="M6 1561h164v-236h-78zM92 0v1169h78v-1169h-78z" />
<glyph unicode="&#xed;" horiz-adv-x="239" d="M63 0v1169h78v-1169h-78zM63 1325l78 236h90l-84 -236h-84z" />
<glyph unicode="&#xee;" horiz-adv-x="475" d="M8 1325l266 229l187 -229h-101l-124 150l-125 -150h-103zM197 0v1169h77v-1169h-77zM264 1561h10l-6 -7z" />
<glyph unicode="&#xef;" horiz-adv-x="327" d="M8 1325v80h193l-115 -80h-78zM123 0v1169h78v-1169h-78zM242 1325v80h77v-80h-77z" />
<glyph unicode="&#xf1;" horiz-adv-x="946" d="M66 0v1169h77v-104q94 104 234 104h158q63 0 119.5 -24.5t99.5 -67.5t67.5 -99t24.5 -120v-858h-78v858q0 47 -18.5 89t-51 75t-74.5 51.5t-89 18.5h-158q-47 0 -90 -18.5t-75 -50.5t-50.5 -75t-18.5 -90v-858h-77zM66 1366q92 135 258 135q45 0 83.5 -15.5t75.5 -34.5 t74 -34.5t80 -15.5q123 0 192 100l66 -45q-96 -133 -258 -133q-45 0 -83 15.5t-75 34t-74.5 33.5t-80.5 15q-125 0 -195 -98z" />
<glyph unicode="&#xf2;" horiz-adv-x="868" d="M47 311v547q0 63 24.5 120.5t67.5 99.5t99.5 66.5t119.5 24.5h158q63 0 119.5 -24.5t99.5 -67.5t67.5 -99t24.5 -120v-547q0 -63 -24.5 -119.5t-66.5 -99.5t-99 -67.5t-121 -24.5h-158q-66 0 -122 24.5t-98 66.5t-66.5 98.5t-24.5 121.5zM125 311q0 -49 18.5 -91 t50 -73.5t73.5 -50t91 -18.5h158q47 0 90 18.5t75 50t50.5 74.5t18.5 90v547q0 47 -18.5 89t-51.5 75t-75 51.5t-89 18.5h-158q-47 0 -90 -18.5t-74.5 -50.5t-50 -75t-18.5 -90v-547zM307 1561h84l84 -236h-82z" />
<glyph unicode="&#xf3;" horiz-adv-x="868" d="M41 311v547q0 63 24.5 120.5t67.5 99.5t99.5 66.5t119.5 24.5h158q63 0 119.5 -24.5t99.5 -67.5t67.5 -99t24.5 -120v-547q0 -63 -24.5 -119.5t-66.5 -99.5t-99.5 -67.5t-120.5 -24.5h-158q-66 0 -122 24.5t-98 66.5t-66.5 98.5t-24.5 121.5zM119 311q0 -49 18.5 -91 t50 -73.5t73.5 -50t91 -18.5h158q47 0 90 18.5t75 50t50 74.5t18 90v547q0 47 -18 89t-51 75t-75 51.5t-89 18.5h-158q-47 0 -90 -18.5t-74.5 -50.5t-50 -75t-18.5 -90v-547zM391 1325l86 236h84l-86 -236h-84z" />
<glyph unicode="&#xf4;" horiz-adv-x="880" d="M49 311v547q0 63 24.5 120.5t67.5 99.5t99.5 66.5t119.5 24.5h158q63 0 119.5 -24.5t99.5 -67.5t67.5 -99t24.5 -120v-547q0 -63 -24.5 -119.5t-66.5 -99.5t-99 -67.5t-121 -24.5h-158q-66 0 -122 24.5t-98 66.5t-66.5 98.5t-24.5 121.5zM127 311q0 -49 18.5 -91 t50 -73.5t73.5 -50t91 -18.5h158q47 0 90 18.5t75 50t50.5 74.5t18.5 90v547q0 47 -18.5 89t-51.5 75t-75 51.5t-89 18.5h-158q-47 0 -90 -18.5t-74.5 -50.5t-50 -75t-18.5 -90v-547zM213 1325l197 236h59l197 -236h-103l-125 150l-123 -150h-102z" />
<glyph unicode="&#xf5;" horiz-adv-x="937" d="M59 311v547q0 63 25 120.5t68 99.5t99 66.5t120 24.5h157q63 0 120 -24.5t100 -67.5t67.5 -99t24.5 -120v-547q0 -63 -24.5 -119.5t-66.5 -99.5t-99.5 -67.5t-121.5 -24.5h-157q-66 0 -122 24.5t-98 66.5t-67 98.5t-25 121.5zM59 1366q92 135 258 135q45 0 84 -15.5 t76 -34.5t74 -34.5t80 -15.5q123 0 192 100l66 -45q-96 -133 -258 -133q-45 0 -83 15.5t-75 34t-75 33.5t-81 15q-125 0 -194 -98zM137 311q0 -49 18.5 -91t50.5 -73.5t74 -50t91 -18.5h157q47 0 90.5 18.5t75 50t50 74.5t18.5 90v547q0 47 -18.5 89t-51.5 75t-75 51.5 t-89 18.5h-157q-47 0 -90 -18.5t-75 -50.5t-50.5 -75t-18.5 -90v-547z" />
<glyph unicode="&#xf6;" horiz-adv-x="872" d="M45 311v547q0 63 24.5 120.5t67.5 99.5t99.5 66.5t119.5 24.5h158q63 0 119.5 -24.5t99.5 -67.5t67.5 -99t24.5 -120v-547q0 -63 -24.5 -119.5t-66.5 -99.5t-99 -67.5t-121 -24.5h-158q-66 0 -122 24.5t-98 66.5t-66.5 98.5t-24.5 121.5zM123 311q0 -49 18.5 -91 t50 -73.5t73.5 -50t91 -18.5h158q47 0 90 18.5t75 50t50.5 74.5t18.5 90v547q0 47 -18.5 89t-51.5 75t-75 51.5t-89 18.5h-158q-47 0 -90 -18.5t-74.5 -50.5t-50 -75t-18.5 -90v-547zM279 1325v80h77v-80h-77zM514 1325v80h78v-80h-78z" />
<glyph unicode="&#xf7;" horiz-adv-x="780" d="M0 547v78h780v-78h-780zM350 233v78h80v-78h-80zM350 858v78h80v-78h-80z" />
<glyph unicode="&#xf8;" horiz-adv-x="880" d="M49 311v547q0 63 24.5 120.5t67.5 99.5t99.5 66.5t119.5 24.5h158q45 0 88 -12l62 170h82l-72 -201q152 -92 151 -268v-547q0 -63 -24.5 -119.5t-66.5 -99.5t-99 -67.5t-121 -24.5h-158q-45 0 -88 12l-61 -168h-84l74 201q-152 90 -152 266zM127 311q0 -122 100 -192 l353 964q-23 8 -62 9h-158q-47 0 -90 -18.5t-74.5 -50.5t-50 -75t-18.5 -90v-547zM299 86q23 -8 61 -8h158q47 0 90 18.5t75 50t50.5 74.5t18.5 90v547q-1 121 -103 193z" />
<glyph unicode="&#xf9;" horiz-adv-x="878" d="M49 311v858h78v-858q0 -49 18.5 -91t50 -73.5t73.5 -50t91 -18.5h158q47 0 90 18.5t75 50t50.5 74.5t18.5 90v858h77v-1169h-77v106q-94 -106 -234 -106h-158q-66 0 -122 24.5t-98 66.5t-66.5 98.5t-24.5 121.5zM309 1561h84l84 -236h-82z" />
<glyph unicode="&#xfa;" horiz-adv-x="880" d="M45 311v858h78v-858q0 -49 18.5 -91t50 -73.5t73.5 -50t91 -18.5h158q47 0 90 18.5t75 50t50.5 74.5t18.5 90v858h77v-1169h-77v106q-94 -106 -234 -106h-158q-66 0 -122 24.5t-98 66.5t-66.5 98.5t-24.5 121.5zM395 1325l86 236h84l-86 -236h-84z" />
<glyph unicode="&#xfb;" horiz-adv-x="890" d="M53 311v858h78v-858q0 -49 18.5 -91t50 -73.5t73.5 -50t92 -18.5h157q47 0 90 18.5t75 50t50.5 74.5t18.5 90v858h78v-1169h-78v106q-94 -106 -234 -106h-157q-66 0 -122.5 24.5t-98.5 66.5t-66.5 98.5t-24.5 121.5zM217 1325l197 236h59l197 -236h-103l-125 150 l-123 -150h-102z" />
<glyph unicode="&#xfc;" horiz-adv-x="884" d="M49 311v858h78v-858q0 -49 18.5 -91t50 -73.5t73.5 -50t91 -18.5h158q47 0 90 18.5t75 50t50.5 74.5t18.5 90v858h77v-1169h-77v106q-94 -106 -234 -106h-158q-66 0 -122 24.5t-98 66.5t-66.5 98.5t-24.5 121.5zM283 1325v80h77v-80h-77zM518 1325v80h78v-80h-78z" />
<glyph unicode="&#xfd;" horiz-adv-x="960" d="M16 1169l426 -1169l-170 -469h82l596 1638h-82l-385 -1054l-383 1054h-84zM354 1561h264l-86 -236h-83z" />
<glyph unicode="&#x2000;" horiz-adv-x="1051" />
<glyph unicode="&#x2001;" horiz-adv-x="2103" />
<glyph unicode="&#x2002;" horiz-adv-x="1051" />
<glyph unicode="&#x2003;" horiz-adv-x="2103" />
<glyph unicode="&#x2004;" horiz-adv-x="701" />
<glyph unicode="&#x2005;" horiz-adv-x="525" />
<glyph unicode="&#x2006;" horiz-adv-x="350" />
<glyph unicode="&#x2007;" horiz-adv-x="350" />
<glyph unicode="&#x2008;" horiz-adv-x="262" />
<glyph unicode="&#x2009;" horiz-adv-x="420" />
<glyph unicode="&#x200a;" horiz-adv-x="116" />
<glyph unicode="&#x2010;" horiz-adv-x="778" d="M76 547v78h624v-78h-624z" />
<glyph unicode="&#x2011;" horiz-adv-x="778" d="M76 547v78h624v-78h-624z" />
<glyph unicode="&#x2012;" horiz-adv-x="778" d="M76 547v78h624v-78h-624z" />
<glyph unicode="&#x2013;" horiz-adv-x="778" d="M76 547v78h624v-78h-624z" />
<glyph unicode="&#x2014;" horiz-adv-x="1089" d="M76 547v78h936v-78h-936z" />
<glyph unicode="&#x2018;" horiz-adv-x="192" d="M39 1405v78l57 155h49l-57 -155h29v-78h-78z" />
<glyph unicode="&#x2019;" horiz-adv-x="192" d="M43 1405l57 156h-28v77h78v-77l-56 -156h-51z" />
<glyph unicode="&#x201a;" horiz-adv-x="192" d="M43 -156l57 156h-28v78h78v-78l-56 -156h-51z" />
<glyph unicode="&#x201c;" horiz-adv-x="407" d="M72 1405v78l57 155h49l-57 -155h29v-78h-78zM227 1405v78l58 155h49l-58 -155h29v-78h-78z" />
<glyph unicode="&#x201d;" horiz-adv-x="401" d="M68 1405l57 156h-29v77h78v-77l-55 -156h-51zM223 1405l58 156h-29v77h78v-77l-56 -156h-51z" />
<glyph unicode="&#x201e;" horiz-adv-x="401" d="M68 -156l57 156h-29v78h78v-78l-55 -156h-51zM223 -156l58 156h-29v78h78v-78l-56 -156h-51z" />
<glyph unicode="&#x2022;" d="M76 780v78h78v-78h-78z" />
<glyph unicode="&#x2026;" horiz-adv-x="700" d="M76 0v78h78v-78h-78zM309 0v78h78v-78h-78zM545 0v78h78v-78h-78z" />
<glyph unicode="&#x202f;" horiz-adv-x="420" />
<glyph unicode="&#x2039;" horiz-adv-x="319" d="M14 586l158 272h90l-158 -272l158 -275h-90z" />
<glyph unicode="&#x203a;" horiz-adv-x="317" d="M53 311l158 275l-158 272h90l158 -272l-158 -275h-90z" />
<glyph unicode="&#x205f;" horiz-adv-x="525" />
<glyph unicode="&#x20ac;" horiz-adv-x="1130" d="M66 430v778q0 88 33.5 167t92 137.5t136.5 92t168 33.5h155q86 0 164 -34.5t136.5 -93t93 -136.5t34.5 -166h-78q0 72 -27.5 136.5t-75.5 112.5t-111.5 76t-135.5 28h-155q-72 0 -135.5 -28t-111.5 -76t-77 -111.5t-29 -137.5v-194h703v-78h-703v-234h703v-77h-703v-195 q0 -72 28 -136.5t76 -112.5t112.5 -75.5t136.5 -27.5h155q74 0 137.5 27.5t110.5 75.5t74.5 112.5t27.5 136.5h78q0 -90 -33.5 -168t-92 -136t-136.5 -92t-166 -34h-155q-90 0 -168 34t-136.5 92t-92 136t-33.5 168z" />
<glyph unicode="&#x2122;" horiz-adv-x="1060" d="M53 1561v77h389v-77h-155v-469h-78v469h-156zM522 1092v546h78l152 -417l151 417h80v-546h-80v319l-115 -319h-73l-115 319v-319h-78z" />
<glyph unicode="&#xe000;" horiz-adv-x="1167" d="M0 0v1167h1167v-1167h-1167z" />
</font>
</defs>
</svg>
